<?xml version="1.0" encoding="utf-8"?>
<svg xmlns="http://www.w3.org/2000/svg"
    xmlns:xlink="http://www.w3.org/1999/xlink"
    width="480" height="480" viewBox="0 0 480 480">
<defs>
<style type="text/css"><![CDATA[
line {
    stroke: #000000;
    stroke-linecap: square;
    stroke-width: 5;
}
]]></style>
</defs>
<line x1="0.0" y1="12.0" x2="12.0" y2="12.0"/>
<line x1="0.0" y1="36.0" x2="12.0" y2="36.0"/>
<line x1="0.0" y1="60.0" x2="12.0" y2="60.0"/>
<line x1="12.0" y1="84.0" x2="12.0" y2="96.0"/>
<line x1="0.0" y1="108.0" x2="12.0" y2="108.0"/>
<line x1="12.0" y1="108.0" x2="12.0" y2="120.0"/>
<line x1="12.0" y1="144.0" x2="12.0" y2="156.0"/>
<line x1="0.0" y1="168.0" x2="12.0" y2="168.0"/>
<line x1="12.0" y1="180.0" x2="12.0" y2="192.0"/>
<line x1="12.0" y1="192.0" x2="12.0" y2="204.0"/>
<line x1="0.0" y1="216.0" x2="12.0" y2="216.0"/>
<line x1="12.0" y1="216.0" x2="12.0" y2="228.0"/>
<line x1="12.0" y1="228.0" x2="12.0" y2="240.0"/>
<line x1="12.0" y1="240.0" x2="12.0" y2="252.0"/>
<line x1="12.0" y1="252.0" x2="12.0" y2="264.0"/>
<line x1="0.0" y1="288.0" x2="12.0" y2="288.0"/>
<line x1="12.0" y1="276.0" x2="12.0" y2="288.0"/>
<line x1="12.0" y1="312.0" x2="12.0" y2="324.0"/>
<line x1="0.0" y1="336.0" x2="12.0" y2="336.0"/>
<line x1="12.0" y1="348.0" x2="12.0" y2="360.0"/>
<line x1="12.0" y1="360.0" x2="12.0" y2="372.0"/>
<line x1="12.0" y1="372.0" x2="12.0" y2="384.0"/>
<line x1="12.0" y1="384.0" x2="12.0" y2="396.0"/>
<line x1="12.0" y1="396.0" x2="12.0" y2="408.0"/>
<line x1="0.0" y1="420.0" x2="12.0" y2="420.0"/>
<line x1="12.0" y1="432.0" x2="12.0" y2="444.0"/>
<line x1="12.0" y1="456.0" x2="12.0" y2="468.0"/>
<line x1="0.0" y1="480.0" x2="12.0" y2="480.0"/>
<line x1="12.0" y1="468.0" x2="12.0" y2="480.0"/>
<line x1="24.0" y1="0.0" x2="24.0" y2="12.0"/>
<line x1="12.0" y1="24.0" x2="24.0" y2="24.0"/>
<line x1="24.0" y1="12.0" x2="24.0" y2="24.0"/>
<line x1="12.0" y1="36.0" x2="24.0" y2="36.0"/>
<line x1="12.0" y1="48.0" x2="24.0" y2="48.0"/>
<line x1="12.0" y1="60.0" x2="24.0" y2="60.0"/>
<line x1="12.0" y1="72.0" x2="24.0" y2="72.0"/>
<line x1="24.0" y1="60.0" x2="24.0" y2="72.0"/>
<line x1="12.0" y1="84.0" x2="24.0" y2="84.0"/>
<line x1="12.0" y1="96.0" x2="24.0" y2="96.0"/>
<line x1="24.0" y1="96.0" x2="24.0" y2="108.0"/>
<line x1="12.0" y1="120.0" x2="24.0" y2="120.0"/>
<line x1="12.0" y1="132.0" x2="24.0" y2="132.0"/>
<line x1="24.0" y1="120.0" x2="24.0" y2="132.0"/>
<line x1="12.0" y1="144.0" x2="24.0" y2="144.0"/>
<line x1="12.0" y1="156.0" x2="24.0" y2="156.0"/>
<line x1="12.0" y1="168.0" x2="24.0" y2="168.0"/>
<line x1="24.0" y1="168.0" x2="24.0" y2="180.0"/>
<line x1="12.0" y1="192.0" x2="24.0" y2="192.0"/>
<line x1="12.0" y1="204.0" x2="24.0" y2="204.0"/>
<line x1="24.0" y1="204.0" x2="24.0" y2="216.0"/>
<line x1="24.0" y1="216.0" x2="24.0" y2="228.0"/>
<line x1="24.0" y1="228.0" x2="24.0" y2="240.0"/>
<line x1="24.0" y1="240.0" x2="24.0" y2="252.0"/>
<line x1="12.0" y1="264.0" x2="24.0" y2="264.0"/>
<line x1="24.0" y1="276.0" x2="24.0" y2="288.0"/>
<line x1="12.0" y1="300.0" x2="24.0" y2="300.0"/>
<line x1="24.0" y1="288.0" x2="24.0" y2="300.0"/>
<line x1="24.0" y1="300.0" x2="24.0" y2="312.0"/>
<line x1="12.0" y1="324.0" x2="24.0" y2="324.0"/>
<line x1="12.0" y1="336.0" x2="24.0" y2="336.0"/>
<line x1="24.0" y1="336.0" x2="24.0" y2="348.0"/>
<line x1="24.0" y1="348.0" x2="24.0" y2="360.0"/>
<line x1="12.0" y1="372.0" x2="24.0" y2="372.0"/>
<line x1="24.0" y1="372.0" x2="24.0" y2="384.0"/>
<line x1="24.0" y1="384.0" x2="24.0" y2="396.0"/>
<line x1="12.0" y1="420.0" x2="24.0" y2="420.0"/>
<line x1="24.0" y1="408.0" x2="24.0" y2="420.0"/>
<line x1="24.0" y1="420.0" x2="24.0" y2="432.0"/>
<line x1="12.0" y1="444.0" x2="24.0" y2="444.0"/>
<line x1="24.0" y1="444.0" x2="24.0" y2="456.0"/>
<line x1="24.0" y1="456.0" x2="24.0" y2="468.0"/>
<line x1="12.0" y1="480.0" x2="24.0" y2="480.0"/>
<line x1="24.0" y1="24.0" x2="36.0" y2="24.0"/>
<line x1="36.0" y1="12.0" x2="36.0" y2="24.0"/>
<line x1="24.0" y1="36.0" x2="36.0" y2="36.0"/>
<line x1="24.0" y1="48.0" x2="36.0" y2="48.0"/>
<line x1="36.0" y1="48.0" x2="36.0" y2="60.0"/>
<line x1="24.0" y1="72.0" x2="36.0" y2="72.0"/>
<line x1="24.0" y1="84.0" x2="36.0" y2="84.0"/>
<line x1="36.0" y1="84.0" x2="36.0" y2="96.0"/>
<line x1="36.0" y1="96.0" x2="36.0" y2="108.0"/>
<line x1="36.0" y1="108.0" x2="36.0" y2="120.0"/>
<line x1="36.0" y1="120.0" x2="36.0" y2="132.0"/>
<line x1="24.0" y1="144.0" x2="36.0" y2="144.0"/>
<line x1="36.0" y1="132.0" x2="36.0" y2="144.0"/>
<line x1="24.0" y1="168.0" x2="36.0" y2="168.0"/>
<line x1="36.0" y1="156.0" x2="36.0" y2="168.0"/>
<line x1="24.0" y1="192.0" x2="36.0" y2="192.0"/>
<line x1="36.0" y1="180.0" x2="36.0" y2="192.0"/>
<line x1="36.0" y1="192.0" x2="36.0" y2="204.0"/>
<line x1="36.0" y1="216.0" x2="36.0" y2="228.0"/>
<line x1="24.0" y1="252.0" x2="36.0" y2="252.0"/>
<line x1="24.0" y1="264.0" x2="36.0" y2="264.0"/>
<line x1="36.0" y1="264.0" x2="36.0" y2="276.0"/>
<line x1="24.0" y1="288.0" x2="36.0" y2="288.0"/>
<line x1="24.0" y1="312.0" x2="36.0" y2="312.0"/>
<line x1="24.0" y1="324.0" x2="36.0" y2="324.0"/>
<line x1="36.0" y1="324.0" x2="36.0" y2="336.0"/>
<line x1="36.0" y1="336.0" x2="36.0" y2="348.0"/>
<line x1="24.0" y1="360.0" x2="36.0" y2="360.0"/>
<line x1="36.0" y1="360.0" x2="36.0" y2="372.0"/>
<line x1="24.0" y1="396.0" x2="36.0" y2="396.0"/>
<line x1="36.0" y1="396.0" x2="36.0" y2="408.0"/>
<line x1="36.0" y1="408.0" x2="36.0" y2="420.0"/>
<line x1="24.0" y1="432.0" x2="36.0" y2="432.0"/>
<line x1="36.0" y1="432.0" x2="36.0" y2="444.0"/>
<line x1="36.0" y1="444.0" x2="36.0" y2="456.0"/>
<line x1="24.0" y1="468.0" x2="36.0" y2="468.0"/>
<line x1="36.0" y1="456.0" x2="36.0" y2="468.0"/>
<line x1="24.0" y1="480.0" x2="36.0" y2="480.0"/>
<line x1="36.0" y1="12.0" x2="48.0" y2="12.0"/>
<line x1="36.0" y1="36.0" x2="48.0" y2="36.0"/>
<line x1="48.0" y1="24.0" x2="48.0" y2="36.0"/>
<line x1="36.0" y1="48.0" x2="48.0" y2="48.0"/>
<line x1="36.0" y1="60.0" x2="48.0" y2="60.0"/>
<line x1="36.0" y1="72.0" x2="48.0" y2="72.0"/>
<line x1="36.0" y1="84.0" x2="48.0" y2="84.0"/>
<line x1="36.0" y1="108.0" x2="48.0" y2="108.0"/>
<line x1="48.0" y1="120.0" x2="48.0" y2="132.0"/>
<line x1="36.0" y1="144.0" x2="48.0" y2="144.0"/>
<line x1="48.0" y1="144.0" x2="48.0" y2="156.0"/>
<line x1="36.0" y1="168.0" x2="48.0" y2="168.0"/>
<line x1="48.0" y1="168.0" x2="48.0" y2="180.0"/>
<line x1="48.0" y1="180.0" x2="48.0" y2="192.0"/>
<line x1="36.0" y1="204.0" x2="48.0" y2="204.0"/>
<line x1="36.0" y1="216.0" x2="48.0" y2="216.0"/>
<line x1="48.0" y1="204.0" x2="48.0" y2="216.0"/>
<line x1="36.0" y1="240.0" x2="48.0" y2="240.0"/>
<line x1="48.0" y1="228.0" x2="48.0" y2="240.0"/>
<line x1="36.0" y1="252.0" x2="48.0" y2="252.0"/>
<line x1="48.0" y1="240.0" x2="48.0" y2="252.0"/>
<line x1="36.0" y1="264.0" x2="48.0" y2="264.0"/>
<line x1="36.0" y1="288.0" x2="48.0" y2="288.0"/>
<line x1="48.0" y1="276.0" x2="48.0" y2="288.0"/>
<line x1="36.0" y1="300.0" x2="48.0" y2="300.0"/>
<line x1="36.0" y1="312.0" x2="48.0" y2="312.0"/>
<line x1="48.0" y1="312.0" x2="48.0" y2="324.0"/>
<line x1="36.0" y1="336.0" x2="48.0" y2="336.0"/>
<line x1="36.0" y1="348.0" x2="48.0" y2="348.0"/>
<line x1="48.0" y1="348.0" x2="48.0" y2="360.0"/>
<line x1="36.0" y1="372.0" x2="48.0" y2="372.0"/>
<line x1="36.0" y1="384.0" x2="48.0" y2="384.0"/>
<line x1="36.0" y1="396.0" x2="48.0" y2="396.0"/>
<line x1="48.0" y1="396.0" x2="48.0" y2="408.0"/>
<line x1="48.0" y1="408.0" x2="48.0" y2="420.0"/>
<line x1="36.0" y1="432.0" x2="48.0" y2="432.0"/>
<line x1="36.0" y1="456.0" x2="48.0" y2="456.0"/>
<line x1="36.0" y1="480.0" x2="48.0" y2="480.0"/>
<line x1="48.0" y1="12.0" x2="60.0" y2="12.0"/>
<line x1="60.0" y1="12.0" x2="60.0" y2="24.0"/>
<line x1="60.0" y1="24.0" x2="60.0" y2="36.0"/>
<line x1="48.0" y1="48.0" x2="60.0" y2="48.0"/>
<line x1="60.0" y1="36.0" x2="60.0" y2="48.0"/>
<line x1="48.0" y1="60.0" x2="60.0" y2="60.0"/>
<line x1="48.0" y1="72.0" x2="60.0" y2="72.0"/>
<line x1="60.0" y1="72.0" x2="60.0" y2="84.0"/>
<line x1="48.0" y1="96.0" x2="60.0" y2="96.0"/>
<line x1="60.0" y1="84.0" x2="60.0" y2="96.0"/>
<line x1="48.0" y1="108.0" x2="60.0" y2="108.0"/>
<line x1="48.0" y1="120.0" x2="60.0" y2="120.0"/>
<line x1="60.0" y1="132.0" x2="60.0" y2="144.0"/>
<line x1="48.0" y1="156.0" x2="60.0" y2="156.0"/>
<line x1="48.0" y1="168.0" x2="60.0" y2="168.0"/>
<line x1="48.0" y1="192.0" x2="60.0" y2="192.0"/>
<line x1="48.0" y1="216.0" x2="60.0" y2="216.0"/>
<line x1="60.0" y1="216.0" x2="60.0" y2="228.0"/>
<line x1="60.0" y1="228.0" x2="60.0" y2="240.0"/>
<line x1="48.0" y1="252.0" x2="60.0" y2="252.0"/>
<line x1="48.0" y1="264.0" x2="60.0" y2="264.0"/>
<line x1="48.0" y1="276.0" x2="60.0" y2="276.0"/>
<line x1="48.0" y1="300.0" x2="60.0" y2="300.0"/>
<line x1="60.0" y1="288.0" x2="60.0" y2="300.0"/>
<line x1="60.0" y1="300.0" x2="60.0" y2="312.0"/>
<line x1="48.0" y1="336.0" x2="60.0" y2="336.0"/>
<line x1="60.0" y1="324.0" x2="60.0" y2="336.0"/>
<line x1="60.0" y1="336.0" x2="60.0" y2="348.0"/>
<line x1="48.0" y1="360.0" x2="60.0" y2="360.0"/>
<line x1="48.0" y1="372.0" x2="60.0" y2="372.0"/>
<line x1="48.0" y1="384.0" x2="60.0" y2="384.0"/>
<line x1="60.0" y1="372.0" x2="60.0" y2="384.0"/>
<line x1="60.0" y1="384.0" x2="60.0" y2="396.0"/>
<line x1="60.0" y1="396.0" x2="60.0" y2="408.0"/>
<line x1="48.0" y1="420.0" x2="60.0" y2="420.0"/>
<line x1="48.0" y1="432.0" x2="60.0" y2="432.0"/>
<line x1="48.0" y1="444.0" x2="60.0" y2="444.0"/>
<line x1="60.0" y1="444.0" x2="60.0" y2="456.0"/>
<line x1="48.0" y1="468.0" x2="60.0" y2="468.0"/>
<line x1="60.0" y1="456.0" x2="60.0" y2="468.0"/>
<line x1="48.0" y1="480.0" x2="60.0" y2="480.0"/>
<line x1="72.0" y1="24.0" x2="72.0" y2="36.0"/>
<line x1="60.0" y1="60.0" x2="72.0" y2="60.0"/>
<line x1="72.0" y1="48.0" x2="72.0" y2="60.0"/>
<line x1="60.0" y1="72.0" x2="72.0" y2="72.0"/>
<line x1="72.0" y1="84.0" x2="72.0" y2="96.0"/>
<line x1="60.0" y1="108.0" x2="72.0" y2="108.0"/>
<line x1="72.0" y1="96.0" x2="72.0" y2="108.0"/>
<line x1="60.0" y1="120.0" x2="72.0" y2="120.0"/>
<line x1="72.0" y1="120.0" x2="72.0" y2="132.0"/>
<line x1="60.0" y1="144.0" x2="72.0" y2="144.0"/>
<line x1="60.0" y1="156.0" x2="72.0" y2="156.0"/>
<line x1="60.0" y1="168.0" x2="72.0" y2="168.0"/>
<line x1="60.0" y1="180.0" x2="72.0" y2="180.0"/>
<line x1="60.0" y1="192.0" x2="72.0" y2="192.0"/>
<line x1="60.0" y1="204.0" x2="72.0" y2="204.0"/>
<line x1="72.0" y1="192.0" x2="72.0" y2="204.0"/>
<line x1="72.0" y1="204.0" x2="72.0" y2="216.0"/>
<line x1="72.0" y1="216.0" x2="72.0" y2="228.0"/>
<line x1="60.0" y1="240.0" x2="72.0" y2="240.0"/>
<line x1="60.0" y1="252.0" x2="72.0" y2="252.0"/>
<line x1="60.0" y1="264.0" x2="72.0" y2="264.0"/>
<line x1="60.0" y1="276.0" x2="72.0" y2="276.0"/>
<line x1="72.0" y1="264.0" x2="72.0" y2="276.0"/>
<line x1="72.0" y1="276.0" x2="72.0" y2="288.0"/>
<line x1="60.0" y1="312.0" x2="72.0" y2="312.0"/>
<line x1="60.0" y1="324.0" x2="72.0" y2="324.0"/>
<line x1="72.0" y1="312.0" x2="72.0" y2="324.0"/>
<line x1="60.0" y1="348.0" x2="72.0" y2="348.0"/>
<line x1="60.0" y1="360.0" x2="72.0" y2="360.0"/>
<line x1="72.0" y1="360.0" x2="72.0" y2="372.0"/>
<line x1="60.0" y1="384.0" x2="72.0" y2="384.0"/>
<line x1="72.0" y1="396.0" x2="72.0" y2="408.0"/>
<line x1="60.0" y1="420.0" x2="72.0" y2="420.0"/>
<line x1="72.0" y1="408.0" x2="72.0" y2="420.0"/>
<line x1="60.0" y1="432.0" x2="72.0" y2="432.0"/>
<line x1="72.0" y1="444.0" x2="72.0" y2="456.0"/>
<line x1="60.0" y1="468.0" x2="72.0" y2="468.0"/>
<line x1="60.0" y1="480.0" x2="72.0" y2="480.0"/>
<line x1="72.0" y1="468.0" x2="72.0" y2="480.0"/>
<line x1="72.0" y1="12.0" x2="84.0" y2="12.0"/>
<line x1="84.0" y1="12.0" x2="84.0" y2="24.0"/>
<line x1="72.0" y1="36.0" x2="84.0" y2="36.0"/>
<line x1="72.0" y1="48.0" x2="84.0" y2="48.0"/>
<line x1="84.0" y1="36.0" x2="84.0" y2="48.0"/>
<line x1="72.0" y1="72.0" x2="84.0" y2="72.0"/>
<line x1="84.0" y1="60.0" x2="84.0" y2="72.0"/>
<line x1="84.0" y1="72.0" x2="84.0" y2="84.0"/>
<line x1="72.0" y1="96.0" x2="84.0" y2="96.0"/>
<line x1="72.0" y1="108.0" x2="84.0" y2="108.0"/>
<line x1="84.0" y1="108.0" x2="84.0" y2="120.0"/>
<line x1="72.0" y1="132.0" x2="84.0" y2="132.0"/>
<line x1="72.0" y1="144.0" x2="84.0" y2="144.0"/>
<line x1="72.0" y1="156.0" x2="84.0" y2="156.0"/>
<line x1="84.0" y1="144.0" x2="84.0" y2="156.0"/>
<line x1="84.0" y1="156.0" x2="84.0" y2="168.0"/>
<line x1="72.0" y1="180.0" x2="84.0" y2="180.0"/>
<line x1="84.0" y1="168.0" x2="84.0" y2="180.0"/>
<line x1="84.0" y1="180.0" x2="84.0" y2="192.0"/>
<line x1="72.0" y1="204.0" x2="84.0" y2="204.0"/>
<line x1="84.0" y1="216.0" x2="84.0" y2="228.0"/>
<line x1="72.0" y1="240.0" x2="84.0" y2="240.0"/>
<line x1="84.0" y1="228.0" x2="84.0" y2="240.0"/>
<line x1="72.0" y1="252.0" x2="84.0" y2="252.0"/>
<line x1="84.0" y1="252.0" x2="84.0" y2="264.0"/>
<line x1="84.0" y1="264.0" x2="84.0" y2="276.0"/>
<line x1="72.0" y1="288.0" x2="84.0" y2="288.0"/>
<line x1="72.0" y1="300.0" x2="84.0" y2="300.0"/>
<line x1="84.0" y1="300.0" x2="84.0" y2="312.0"/>
<line x1="84.0" y1="312.0" x2="84.0" y2="324.0"/>
<line x1="72.0" y1="336.0" x2="84.0" y2="336.0"/>
<line x1="72.0" y1="348.0" x2="84.0" y2="348.0"/>
<line x1="84.0" y1="348.0" x2="84.0" y2="360.0"/>
<line x1="84.0" y1="360.0" x2="84.0" y2="372.0"/>
<line x1="84.0" y1="372.0" x2="84.0" y2="384.0"/>
<line x1="72.0" y1="396.0" x2="84.0" y2="396.0"/>
<line x1="84.0" y1="384.0" x2="84.0" y2="396.0"/>
<line x1="72.0" y1="408.0" x2="84.0" y2="408.0"/>
<line x1="72.0" y1="432.0" x2="84.0" y2="432.0"/>
<line x1="84.0" y1="420.0" x2="84.0" y2="432.0"/>
<line x1="84.0" y1="432.0" x2="84.0" y2="444.0"/>
<line x1="72.0" y1="456.0" x2="84.0" y2="456.0"/>
<line x1="84.0" y1="444.0" x2="84.0" y2="456.0"/>
<line x1="84.0" y1="456.0" x2="84.0" y2="468.0"/>
<line x1="72.0" y1="480.0" x2="84.0" y2="480.0"/>
<line x1="84.0" y1="12.0" x2="96.0" y2="12.0"/>
<line x1="84.0" y1="24.0" x2="96.0" y2="24.0"/>
<line x1="96.0" y1="24.0" x2="96.0" y2="36.0"/>
<line x1="96.0" y1="36.0" x2="96.0" y2="48.0"/>
<line x1="84.0" y1="60.0" x2="96.0" y2="60.0"/>
<line x1="96.0" y1="48.0" x2="96.0" y2="60.0"/>
<line x1="96.0" y1="72.0" x2="96.0" y2="84.0"/>
<line x1="84.0" y1="96.0" x2="96.0" y2="96.0"/>
<line x1="96.0" y1="84.0" x2="96.0" y2="96.0"/>
<line x1="96.0" y1="108.0" x2="96.0" y2="120.0"/>
<line x1="84.0" y1="132.0" x2="96.0" y2="132.0"/>
<line x1="96.0" y1="120.0" x2="96.0" y2="132.0"/>
<line x1="96.0" y1="132.0" x2="96.0" y2="144.0"/>
<line x1="96.0" y1="144.0" x2="96.0" y2="156.0"/>
<line x1="96.0" y1="168.0" x2="96.0" y2="180.0"/>
<line x1="84.0" y1="192.0" x2="96.0" y2="192.0"/>
<line x1="84.0" y1="204.0" x2="96.0" y2="204.0"/>
<line x1="96.0" y1="204.0" x2="96.0" y2="216.0"/>
<line x1="96.0" y1="216.0" x2="96.0" y2="228.0"/>
<line x1="84.0" y1="240.0" x2="96.0" y2="240.0"/>
<line x1="96.0" y1="240.0" x2="96.0" y2="252.0"/>
<line x1="84.0" y1="276.0" x2="96.0" y2="276.0"/>
<line x1="84.0" y1="288.0" x2="96.0" y2="288.0"/>
<line x1="84.0" y1="300.0" x2="96.0" y2="300.0"/>
<line x1="96.0" y1="288.0" x2="96.0" y2="300.0"/>
<line x1="84.0" y1="324.0" x2="96.0" y2="324.0"/>
<line x1="84.0" y1="336.0" x2="96.0" y2="336.0"/>
<line x1="96.0" y1="336.0" x2="96.0" y2="348.0"/>
<line x1="96.0" y1="348.0" x2="96.0" y2="360.0"/>
<line x1="96.0" y1="360.0" x2="96.0" y2="372.0"/>
<line x1="84.0" y1="384.0" x2="96.0" y2="384.0"/>
<line x1="96.0" y1="396.0" x2="96.0" y2="408.0"/>
<line x1="84.0" y1="420.0" x2="96.0" y2="420.0"/>
<line x1="96.0" y1="408.0" x2="96.0" y2="420.0"/>
<line x1="96.0" y1="432.0" x2="96.0" y2="444.0"/>
<line x1="96.0" y1="444.0" x2="96.0" y2="456.0"/>
<line x1="96.0" y1="456.0" x2="96.0" y2="468.0"/>
<line x1="84.0" y1="480.0" x2="96.0" y2="480.0"/>
<line x1="108.0" y1="0.0" x2="108.0" y2="12.0"/>
<line x1="96.0" y1="24.0" x2="108.0" y2="24.0"/>
<line x1="108.0" y1="24.0" x2="108.0" y2="36.0"/>
<line x1="108.0" y1="48.0" x2="108.0" y2="60.0"/>
<line x1="96.0" y1="72.0" x2="108.0" y2="72.0"/>
<line x1="108.0" y1="60.0" x2="108.0" y2="72.0"/>
<line x1="96.0" y1="96.0" x2="108.0" y2="96.0"/>
<line x1="108.0" y1="96.0" x2="108.0" y2="108.0"/>
<line x1="96.0" y1="120.0" x2="108.0" y2="120.0"/>
<line x1="108.0" y1="120.0" x2="108.0" y2="132.0"/>
<line x1="96.0" y1="156.0" x2="108.0" y2="156.0"/>
<line x1="96.0" y1="168.0" x2="108.0" y2="168.0"/>
<line x1="108.0" y1="168.0" x2="108.0" y2="180.0"/>
<line x1="96.0" y1="192.0" x2="108.0" y2="192.0"/>
<line x1="108.0" y1="192.0" x2="108.0" y2="204.0"/>
<line x1="108.0" y1="204.0" x2="108.0" y2="216.0"/>
<line x1="108.0" y1="216.0" x2="108.0" y2="228.0"/>
<line x1="96.0" y1="240.0" x2="108.0" y2="240.0"/>
<line x1="108.0" y1="228.0" x2="108.0" y2="240.0"/>
<line x1="96.0" y1="264.0" x2="108.0" y2="264.0"/>
<line x1="108.0" y1="252.0" x2="108.0" y2="264.0"/>
<line x1="96.0" y1="276.0" x2="108.0" y2="276.0"/>
<line x1="108.0" y1="276.0" x2="108.0" y2="288.0"/>
<line x1="108.0" y1="288.0" x2="108.0" y2="300.0"/>
<line x1="96.0" y1="312.0" x2="108.0" y2="312.0"/>
<line x1="108.0" y1="300.0" x2="108.0" y2="312.0"/>
<line x1="96.0" y1="324.0" x2="108.0" y2="324.0"/>
<line x1="96.0" y1="336.0" x2="108.0" y2="336.0"/>
<line x1="108.0" y1="324.0" x2="108.0" y2="336.0"/>
<line x1="108.0" y1="348.0" x2="108.0" y2="360.0"/>
<line x1="108.0" y1="360.0" x2="108.0" y2="372.0"/>
<line x1="96.0" y1="384.0" x2="108.0" y2="384.0"/>
<line x1="108.0" y1="372.0" x2="108.0" y2="384.0"/>
<line x1="108.0" y1="384.0" x2="108.0" y2="396.0"/>
<line x1="96.0" y1="408.0" x2="108.0" y2="408.0"/>
<line x1="96.0" y1="432.0" x2="108.0" y2="432.0"/>
<line x1="108.0" y1="420.0" x2="108.0" y2="432.0"/>
<line x1="108.0" y1="432.0" x2="108.0" y2="444.0"/>
<line x1="96.0" y1="468.0" x2="108.0" y2="468.0"/>
<line x1="108.0" y1="456.0" x2="108.0" y2="468.0"/>
<line x1="96.0" y1="480.0" x2="108.0" y2="480.0"/>
<line x1="108.0" y1="24.0" x2="120.0" y2="24.0"/>
<line x1="120.0" y1="12.0" x2="120.0" y2="24.0"/>
<line x1="108.0" y1="48.0" x2="120.0" y2="48.0"/>
<line x1="120.0" y1="36.0" x2="120.0" y2="48.0"/>
<line x1="108.0" y1="60.0" x2="120.0" y2="60.0"/>
<line x1="108.0" y1="84.0" x2="120.0" y2="84.0"/>
<line x1="108.0" y1="96.0" x2="120.0" y2="96.0"/>
<line x1="108.0" y1="108.0" x2="120.0" y2="108.0"/>
<line x1="108.0" y1="120.0" x2="120.0" y2="120.0"/>
<line x1="108.0" y1="144.0" x2="120.0" y2="144.0"/>
<line x1="108.0" y1="156.0" x2="120.0" y2="156.0"/>
<line x1="120.0" y1="144.0" x2="120.0" y2="156.0"/>
<line x1="120.0" y1="156.0" x2="120.0" y2="168.0"/>
<line x1="108.0" y1="180.0" x2="120.0" y2="180.0"/>
<line x1="108.0" y1="192.0" x2="120.0" y2="192.0"/>
<line x1="120.0" y1="204.0" x2="120.0" y2="216.0"/>
<line x1="120.0" y1="216.0" x2="120.0" y2="228.0"/>
<line x1="120.0" y1="228.0" x2="120.0" y2="240.0"/>
<line x1="108.0" y1="252.0" x2="120.0" y2="252.0"/>
<line x1="108.0" y1="264.0" x2="120.0" y2="264.0"/>
<line x1="108.0" y1="276.0" x2="120.0" y2="276.0"/>
<line x1="108.0" y1="300.0" x2="120.0" y2="300.0"/>
<line x1="120.0" y1="288.0" x2="120.0" y2="300.0"/>
<line x1="108.0" y1="324.0" x2="120.0" y2="324.0"/>
<line x1="120.0" y1="312.0" x2="120.0" y2="324.0"/>
<line x1="108.0" y1="348.0" x2="120.0" y2="348.0"/>
<line x1="120.0" y1="336.0" x2="120.0" y2="348.0"/>
<line x1="108.0" y1="360.0" x2="120.0" y2="360.0"/>
<line x1="120.0" y1="372.0" x2="120.0" y2="384.0"/>
<line x1="108.0" y1="396.0" x2="120.0" y2="396.0"/>
<line x1="108.0" y1="408.0" x2="120.0" y2="408.0"/>
<line x1="120.0" y1="408.0" x2="120.0" y2="420.0"/>
<line x1="120.0" y1="420.0" x2="120.0" y2="432.0"/>
<line x1="108.0" y1="444.0" x2="120.0" y2="444.0"/>
<line x1="120.0" y1="444.0" x2="120.0" y2="456.0"/>
<line x1="120.0" y1="456.0" x2="120.0" y2="468.0"/>
<line x1="108.0" y1="480.0" x2="120.0" y2="480.0"/>
<line x1="120.0" y1="468.0" x2="120.0" y2="480.0"/>
<line x1="120.0" y1="12.0" x2="132.0" y2="12.0"/>
<line x1="120.0" y1="36.0" x2="132.0" y2="36.0"/>
<line x1="132.0" y1="36.0" x2="132.0" y2="48.0"/>
<line x1="120.0" y1="60.0" x2="132.0" y2="60.0"/>
<line x1="120.0" y1="72.0" x2="132.0" y2="72.0"/>
<line x1="120.0" y1="84.0" x2="132.0" y2="84.0"/>
<line x1="132.0" y1="84.0" x2="132.0" y2="96.0"/>
<line x1="120.0" y1="108.0" x2="132.0" y2="108.0"/>
<line x1="132.0" y1="96.0" x2="132.0" y2="108.0"/>
<line x1="132.0" y1="108.0" x2="132.0" y2="120.0"/>
<line x1="120.0" y1="132.0" x2="132.0" y2="132.0"/>
<line x1="132.0" y1="120.0" x2="132.0" y2="132.0"/>
<line x1="120.0" y1="144.0" x2="132.0" y2="144.0"/>
<line x1="132.0" y1="156.0" x2="132.0" y2="168.0"/>
<line x1="120.0" y1="180.0" x2="132.0" y2="180.0"/>
<line x1="132.0" y1="168.0" x2="132.0" y2="180.0"/>
<line x1="120.0" y1="192.0" x2="132.0" y2="192.0"/>
<line x1="132.0" y1="204.0" x2="132.0" y2="216.0"/>
<line x1="120.0" y1="228.0" x2="132.0" y2="228.0"/>
<line x1="132.0" y1="216.0" x2="132.0" y2="228.0"/>
<line x1="120.0" y1="252.0" x2="132.0" y2="252.0"/>
<line x1="132.0" y1="252.0" x2="132.0" y2="264.0"/>
<line x1="132.0" y1="264.0" x2="132.0" y2="276.0"/>
<line x1="120.0" y1="288.0" x2="132.0" y2="288.0"/>
<line x1="132.0" y1="276.0" x2="132.0" y2="288.0"/>
<line x1="120.0" y1="312.0" x2="132.0" y2="312.0"/>
<line x1="132.0" y1="300.0" x2="132.0" y2="312.0"/>
<line x1="132.0" y1="312.0" x2="132.0" y2="324.0"/>
<line x1="120.0" y1="336.0" x2="132.0" y2="336.0"/>
<line x1="132.0" y1="348.0" x2="132.0" y2="360.0"/>
<line x1="132.0" y1="360.0" x2="132.0" y2="372.0"/>
<line x1="120.0" y1="384.0" x2="132.0" y2="384.0"/>
<line x1="132.0" y1="372.0" x2="132.0" y2="384.0"/>
<line x1="120.0" y1="396.0" x2="132.0" y2="396.0"/>
<line x1="132.0" y1="396.0" x2="132.0" y2="408.0"/>
<line x1="132.0" y1="408.0" x2="132.0" y2="420.0"/>
<line x1="120.0" y1="432.0" x2="132.0" y2="432.0"/>
<line x1="120.0" y1="444.0" x2="132.0" y2="444.0"/>
<line x1="132.0" y1="456.0" x2="132.0" y2="468.0"/>
<line x1="120.0" y1="480.0" x2="132.0" y2="480.0"/>
<line x1="132.0" y1="12.0" x2="144.0" y2="12.0"/>
<line x1="132.0" y1="24.0" x2="144.0" y2="24.0"/>
<line x1="144.0" y1="12.0" x2="144.0" y2="24.0"/>
<line x1="144.0" y1="24.0" x2="144.0" y2="36.0"/>
<line x1="132.0" y1="48.0" x2="144.0" y2="48.0"/>
<line x1="144.0" y1="48.0" x2="144.0" y2="60.0"/>
<line x1="132.0" y1="72.0" x2="144.0" y2="72.0"/>
<line x1="144.0" y1="60.0" x2="144.0" y2="72.0"/>
<line x1="144.0" y1="84.0" x2="144.0" y2="96.0"/>
<line x1="144.0" y1="96.0" x2="144.0" y2="108.0"/>
<line x1="132.0" y1="120.0" x2="144.0" y2="120.0"/>
<line x1="132.0" y1="144.0" x2="144.0" y2="144.0"/>
<line x1="144.0" y1="132.0" x2="144.0" y2="144.0"/>
<line x1="144.0" y1="144.0" x2="144.0" y2="156.0"/>
<line x1="132.0" y1="168.0" x2="144.0" y2="168.0"/>
<line x1="132.0" y1="192.0" x2="144.0" y2="192.0"/>
<line x1="144.0" y1="180.0" x2="144.0" y2="192.0"/>
<line x1="132.0" y1="204.0" x2="144.0" y2="204.0"/>
<line x1="144.0" y1="192.0" x2="144.0" y2="204.0"/>
<line x1="144.0" y1="216.0" x2="144.0" y2="228.0"/>
<line x1="132.0" y1="240.0" x2="144.0" y2="240.0"/>
<line x1="132.0" y1="252.0" x2="144.0" y2="252.0"/>
<line x1="144.0" y1="240.0" x2="144.0" y2="252.0"/>
<line x1="144.0" y1="264.0" x2="144.0" y2="276.0"/>
<line x1="144.0" y1="276.0" x2="144.0" y2="288.0"/>
<line x1="132.0" y1="300.0" x2="144.0" y2="300.0"/>
<line x1="144.0" y1="288.0" x2="144.0" y2="300.0"/>
<line x1="144.0" y1="312.0" x2="144.0" y2="324.0"/>
<line x1="132.0" y1="336.0" x2="144.0" y2="336.0"/>
<line x1="144.0" y1="324.0" x2="144.0" y2="336.0"/>
<line x1="132.0" y1="348.0" x2="144.0" y2="348.0"/>
<line x1="144.0" y1="348.0" x2="144.0" y2="360.0"/>
<line x1="132.0" y1="372.0" x2="144.0" y2="372.0"/>
<line x1="132.0" y1="396.0" x2="144.0" y2="396.0"/>
<line x1="132.0" y1="420.0" x2="144.0" y2="420.0"/>
<line x1="132.0" y1="432.0" x2="144.0" y2="432.0"/>
<line x1="132.0" y1="456.0" x2="144.0" y2="456.0"/>
<line x1="144.0" y1="444.0" x2="144.0" y2="456.0"/>
<line x1="132.0" y1="468.0" x2="144.0" y2="468.0"/>
<line x1="132.0" y1="480.0" x2="144.0" y2="480.0"/>
<line x1="144.0" y1="12.0" x2="156.0" y2="12.0"/>
<line x1="144.0" y1="36.0" x2="156.0" y2="36.0"/>
<line x1="156.0" y1="48.0" x2="156.0" y2="60.0"/>
<line x1="144.0" y1="72.0" x2="156.0" y2="72.0"/>
<line x1="144.0" y1="84.0" x2="156.0" y2="84.0"/>
<line x1="144.0" y1="108.0" x2="156.0" y2="108.0"/>
<line x1="144.0" y1="120.0" x2="156.0" y2="120.0"/>
<line x1="156.0" y1="120.0" x2="156.0" y2="132.0"/>
<line x1="144.0" y1="144.0" x2="156.0" y2="144.0"/>
<line x1="144.0" y1="168.0" x2="156.0" y2="168.0"/>
<line x1="156.0" y1="156.0" x2="156.0" y2="168.0"/>
<line x1="156.0" y1="168.0" x2="156.0" y2="180.0"/>
<line x1="156.0" y1="180.0" x2="156.0" y2="192.0"/>
<line x1="156.0" y1="192.0" x2="156.0" y2="204.0"/>
<line x1="144.0" y1="216.0" x2="156.0" y2="216.0"/>
<line x1="156.0" y1="204.0" x2="156.0" y2="216.0"/>
<line x1="144.0" y1="240.0" x2="156.0" y2="240.0"/>
<line x1="156.0" y1="228.0" x2="156.0" y2="240.0"/>
<line x1="144.0" y1="264.0" x2="156.0" y2="264.0"/>
<line x1="156.0" y1="252.0" x2="156.0" y2="264.0"/>
<line x1="156.0" y1="264.0" x2="156.0" y2="276.0"/>
<line x1="156.0" y1="276.0" x2="156.0" y2="288.0"/>
<line x1="144.0" y1="312.0" x2="156.0" y2="312.0"/>
<line x1="156.0" y1="300.0" x2="156.0" y2="312.0"/>
<line x1="144.0" y1="336.0" x2="156.0" y2="336.0"/>
<line x1="156.0" y1="348.0" x2="156.0" y2="360.0"/>
<line x1="144.0" y1="372.0" x2="156.0" y2="372.0"/>
<line x1="156.0" y1="360.0" x2="156.0" y2="372.0"/>
<line x1="144.0" y1="384.0" x2="156.0" y2="384.0"/>
<line x1="144.0" y1="396.0" x2="156.0" y2="396.0"/>
<line x1="144.0" y1="408.0" x2="156.0" y2="408.0"/>
<line x1="144.0" y1="420.0" x2="156.0" y2="420.0"/>
<line x1="144.0" y1="432.0" x2="156.0" y2="432.0"/>
<line x1="144.0" y1="444.0" x2="156.0" y2="444.0"/>
<line x1="144.0" y1="468.0" x2="156.0" y2="468.0"/>
<line x1="156.0" y1="456.0" x2="156.0" y2="468.0"/>
<line x1="144.0" y1="480.0" x2="156.0" y2="480.0"/>
<line x1="168.0" y1="0.0" x2="168.0" y2="12.0"/>
<line x1="156.0" y1="24.0" x2="168.0" y2="24.0"/>
<line x1="168.0" y1="12.0" x2="168.0" y2="24.0"/>
<line x1="156.0" y1="36.0" x2="168.0" y2="36.0"/>
<line x1="168.0" y1="36.0" x2="168.0" y2="48.0"/>
<line x1="156.0" y1="60.0" x2="168.0" y2="60.0"/>
<line x1="168.0" y1="48.0" x2="168.0" y2="60.0"/>
<line x1="156.0" y1="72.0" x2="168.0" y2="72.0"/>
<line x1="156.0" y1="84.0" x2="168.0" y2="84.0"/>
<line x1="156.0" y1="96.0" x2="168.0" y2="96.0"/>
<line x1="156.0" y1="108.0" x2="168.0" y2="108.0"/>
<line x1="168.0" y1="108.0" x2="168.0" y2="120.0"/>
<line x1="168.0" y1="120.0" x2="168.0" y2="132.0"/>
<line x1="156.0" y1="144.0" x2="168.0" y2="144.0"/>
<line x1="168.0" y1="132.0" x2="168.0" y2="144.0"/>
<line x1="168.0" y1="156.0" x2="168.0" y2="168.0"/>
<line x1="156.0" y1="180.0" x2="168.0" y2="180.0"/>
<line x1="168.0" y1="180.0" x2="168.0" y2="192.0"/>
<line x1="168.0" y1="192.0" x2="168.0" y2="204.0"/>
<line x1="168.0" y1="204.0" x2="168.0" y2="216.0"/>
<line x1="168.0" y1="216.0" x2="168.0" y2="228.0"/>
<line x1="156.0" y1="240.0" x2="168.0" y2="240.0"/>
<line x1="168.0" y1="228.0" x2="168.0" y2="240.0"/>
<line x1="168.0" y1="240.0" x2="168.0" y2="252.0"/>
<line x1="168.0" y1="252.0" x2="168.0" y2="264.0"/>
<line x1="168.0" y1="264.0" x2="168.0" y2="276.0"/>
<line x1="156.0" y1="288.0" x2="168.0" y2="288.0"/>
<line x1="168.0" y1="288.0" x2="168.0" y2="300.0"/>
<line x1="156.0" y1="312.0" x2="168.0" y2="312.0"/>
<line x1="156.0" y1="324.0" x2="168.0" y2="324.0"/>
<line x1="156.0" y1="336.0" x2="168.0" y2="336.0"/>
<line x1="168.0" y1="324.0" x2="168.0" y2="336.0"/>
<line x1="156.0" y1="348.0" x2="168.0" y2="348.0"/>
<line x1="168.0" y1="360.0" x2="168.0" y2="372.0"/>
<line x1="156.0" y1="384.0" x2="168.0" y2="384.0"/>
<line x1="168.0" y1="384.0" x2="168.0" y2="396.0"/>
<line x1="156.0" y1="408.0" x2="168.0" y2="408.0"/>
<line x1="168.0" y1="396.0" x2="168.0" y2="408.0"/>
<line x1="156.0" y1="420.0" x2="168.0" y2="420.0"/>
<line x1="168.0" y1="408.0" x2="168.0" y2="420.0"/>
<line x1="156.0" y1="432.0" x2="168.0" y2="432.0"/>
<line x1="156.0" y1="444.0" x2="168.0" y2="444.0"/>
<line x1="168.0" y1="444.0" x2="168.0" y2="456.0"/>
<line x1="156.0" y1="468.0" x2="168.0" y2="468.0"/>
<line x1="156.0" y1="480.0" x2="168.0" y2="480.0"/>
<line x1="168.0" y1="12.0" x2="180.0" y2="12.0"/>
<line x1="168.0" y1="36.0" x2="180.0" y2="36.0"/>
<line x1="180.0" y1="24.0" x2="180.0" y2="36.0"/>
<line x1="168.0" y1="60.0" x2="180.0" y2="60.0"/>
<line x1="168.0" y1="72.0" x2="180.0" y2="72.0"/>
<line x1="168.0" y1="84.0" x2="180.0" y2="84.0"/>
<line x1="180.0" y1="72.0" x2="180.0" y2="84.0"/>
<line x1="168.0" y1="96.0" x2="180.0" y2="96.0"/>
<line x1="180.0" y1="96.0" x2="180.0" y2="108.0"/>
<line x1="180.0" y1="108.0" x2="180.0" y2="120.0"/>
<line x1="180.0" y1="120.0" x2="180.0" y2="132.0"/>
<line x1="168.0" y1="144.0" x2="180.0" y2="144.0"/>
<line x1="168.0" y1="156.0" x2="180.0" y2="156.0"/>
<line x1="168.0" y1="180.0" x2="180.0" y2="180.0"/>
<line x1="180.0" y1="168.0" x2="180.0" y2="180.0"/>
<line x1="168.0" y1="204.0" x2="180.0" y2="204.0"/>
<line x1="180.0" y1="216.0" x2="180.0" y2="228.0"/>
<line x1="180.0" y1="228.0" x2="180.0" y2="240.0"/>
<line x1="180.0" y1="252.0" x2="180.0" y2="264.0"/>
<line x1="168.0" y1="276.0" x2="180.0" y2="276.0"/>
<line x1="180.0" y1="276.0" x2="180.0" y2="288.0"/>
<line x1="180.0" y1="288.0" x2="180.0" y2="300.0"/>
<line x1="168.0" y1="312.0" x2="180.0" y2="312.0"/>
<line x1="180.0" y1="300.0" x2="180.0" y2="312.0"/>
<line x1="168.0" y1="324.0" x2="180.0" y2="324.0"/>
<line x1="168.0" y1="348.0" x2="180.0" y2="348.0"/>
<line x1="180.0" y1="336.0" x2="180.0" y2="348.0"/>
<line x1="180.0" y1="348.0" x2="180.0" y2="360.0"/>
<line x1="168.0" y1="372.0" x2="180.0" y2="372.0"/>
<line x1="168.0" y1="384.0" x2="180.0" y2="384.0"/>
<line x1="180.0" y1="372.0" x2="180.0" y2="384.0"/>
<line x1="168.0" y1="408.0" x2="180.0" y2="408.0"/>
<line x1="168.0" y1="432.0" x2="180.0" y2="432.0"/>
<line x1="180.0" y1="420.0" x2="180.0" y2="432.0"/>
<line x1="180.0" y1="432.0" x2="180.0" y2="444.0"/>
<line x1="180.0" y1="444.0" x2="180.0" y2="456.0"/>
<line x1="168.0" y1="468.0" x2="180.0" y2="468.0"/>
<line x1="168.0" y1="480.0" x2="180.0" y2="480.0"/>
<line x1="180.0" y1="24.0" x2="192.0" y2="24.0"/>
<line x1="192.0" y1="12.0" x2="192.0" y2="24.0"/>
<line x1="180.0" y1="48.0" x2="192.0" y2="48.0"/>
<line x1="192.0" y1="36.0" x2="192.0" y2="48.0"/>
<line x1="180.0" y1="60.0" x2="192.0" y2="60.0"/>
<line x1="192.0" y1="60.0" x2="192.0" y2="72.0"/>
<line x1="180.0" y1="84.0" x2="192.0" y2="84.0"/>
<line x1="192.0" y1="84.0" x2="192.0" y2="96.0"/>
<line x1="180.0" y1="108.0" x2="192.0" y2="108.0"/>
<line x1="180.0" y1="132.0" x2="192.0" y2="132.0"/>
<line x1="192.0" y1="120.0" x2="192.0" y2="132.0"/>
<line x1="180.0" y1="144.0" x2="192.0" y2="144.0"/>
<line x1="180.0" y1="156.0" x2="192.0" y2="156.0"/>
<line x1="192.0" y1="144.0" x2="192.0" y2="156.0"/>
<line x1="180.0" y1="168.0" x2="192.0" y2="168.0"/>
<line x1="180.0" y1="192.0" x2="192.0" y2="192.0"/>
<line x1="192.0" y1="180.0" x2="192.0" y2="192.0"/>
<line x1="192.0" y1="192.0" x2="192.0" y2="204.0"/>
<line x1="180.0" y1="216.0" x2="192.0" y2="216.0"/>
<line x1="192.0" y1="204.0" x2="192.0" y2="216.0"/>
<line x1="180.0" y1="240.0" x2="192.0" y2="240.0"/>
<line x1="192.0" y1="228.0" x2="192.0" y2="240.0"/>
<line x1="180.0" y1="252.0" x2="192.0" y2="252.0"/>
<line x1="180.0" y1="276.0" x2="192.0" y2="276.0"/>
<line x1="192.0" y1="264.0" x2="192.0" y2="276.0"/>
<line x1="192.0" y1="276.0" x2="192.0" y2="288.0"/>
<line x1="180.0" y1="300.0" x2="192.0" y2="300.0"/>
<line x1="180.0" y1="324.0" x2="192.0" y2="324.0"/>
<line x1="180.0" y1="336.0" x2="192.0" y2="336.0"/>
<line x1="192.0" y1="336.0" x2="192.0" y2="348.0"/>
<line x1="180.0" y1="360.0" x2="192.0" y2="360.0"/>
<line x1="180.0" y1="372.0" x2="192.0" y2="372.0"/>
<line x1="180.0" y1="396.0" x2="192.0" y2="396.0"/>
<line x1="192.0" y1="384.0" x2="192.0" y2="396.0"/>
<line x1="192.0" y1="396.0" x2="192.0" y2="408.0"/>
<line x1="180.0" y1="420.0" x2="192.0" y2="420.0"/>
<line x1="192.0" y1="408.0" x2="192.0" y2="420.0"/>
<line x1="180.0" y1="444.0" x2="192.0" y2="444.0"/>
<line x1="192.0" y1="432.0" x2="192.0" y2="444.0"/>
<line x1="180.0" y1="468.0" x2="192.0" y2="468.0"/>
<line x1="192.0" y1="456.0" x2="192.0" y2="468.0"/>
<line x1="180.0" y1="480.0" x2="192.0" y2="480.0"/>
<line x1="192.0" y1="12.0" x2="204.0" y2="12.0"/>
<line x1="204.0" y1="12.0" x2="204.0" y2="24.0"/>
<line x1="204.0" y1="24.0" x2="204.0" y2="36.0"/>
<line x1="192.0" y1="48.0" x2="204.0" y2="48.0"/>
<line x1="192.0" y1="60.0" x2="204.0" y2="60.0"/>
<line x1="192.0" y1="84.0" x2="204.0" y2="84.0"/>
<line x1="204.0" y1="72.0" x2="204.0" y2="84.0"/>
<line x1="192.0" y1="108.0" x2="204.0" y2="108.0"/>
<line x1="204.0" y1="96.0" x2="204.0" y2="108.0"/>
<line x1="192.0" y1="132.0" x2="204.0" y2="132.0"/>
<line x1="204.0" y1="132.0" x2="204.0" y2="144.0"/>
<line x1="204.0" y1="144.0" x2="204.0" y2="156.0"/>
<line x1="192.0" y1="168.0" x2="204.0" y2="168.0"/>
<line x1="192.0" y1="180.0" x2="204.0" y2="180.0"/>
<line x1="204.0" y1="180.0" x2="204.0" y2="192.0"/>
<line x1="204.0" y1="204.0" x2="204.0" y2="216.0"/>
<line x1="204.0" y1="216.0" x2="204.0" y2="228.0"/>
<line x1="192.0" y1="240.0" x2="204.0" y2="240.0"/>
<line x1="192.0" y1="252.0" x2="204.0" y2="252.0"/>
<line x1="204.0" y1="252.0" x2="204.0" y2="264.0"/>
<line x1="204.0" y1="264.0" x2="204.0" y2="276.0"/>
<line x1="192.0" y1="300.0" x2="204.0" y2="300.0"/>
<line x1="204.0" y1="288.0" x2="204.0" y2="300.0"/>
<line x1="192.0" y1="312.0" x2="204.0" y2="312.0"/>
<line x1="192.0" y1="324.0" x2="204.0" y2="324.0"/>
<line x1="204.0" y1="324.0" x2="204.0" y2="336.0"/>
<line x1="204.0" y1="336.0" x2="204.0" y2="348.0"/>
<line x1="192.0" y1="360.0" x2="204.0" y2="360.0"/>
<line x1="192.0" y1="372.0" x2="204.0" y2="372.0"/>
<line x1="192.0" y1="384.0" x2="204.0" y2="384.0"/>
<line x1="204.0" y1="396.0" x2="204.0" y2="408.0"/>
<line x1="192.0" y1="420.0" x2="204.0" y2="420.0"/>
<line x1="204.0" y1="432.0" x2="204.0" y2="444.0"/>
<line x1="192.0" y1="456.0" x2="204.0" y2="456.0"/>
<line x1="204.0" y1="444.0" x2="204.0" y2="456.0"/>
<line x1="192.0" y1="480.0" x2="204.0" y2="480.0"/>
<line x1="216.0" y1="0.0" x2="216.0" y2="12.0"/>
<line x1="216.0" y1="12.0" x2="216.0" y2="24.0"/>
<line x1="216.0" y1="24.0" x2="216.0" y2="36.0"/>
<line x1="204.0" y1="48.0" x2="216.0" y2="48.0"/>
<line x1="216.0" y1="36.0" x2="216.0" y2="48.0"/>
<line x1="216.0" y1="48.0" x2="216.0" y2="60.0"/>
<line x1="204.0" y1="72.0" x2="216.0" y2="72.0"/>
<line x1="216.0" y1="60.0" x2="216.0" y2="72.0"/>
<line x1="204.0" y1="84.0" x2="216.0" y2="84.0"/>
<line x1="204.0" y1="108.0" x2="216.0" y2="108.0"/>
<line x1="204.0" y1="120.0" x2="216.0" y2="120.0"/>
<line x1="216.0" y1="108.0" x2="216.0" y2="120.0"/>
<line x1="204.0" y1="132.0" x2="216.0" y2="132.0"/>
<line x1="216.0" y1="144.0" x2="216.0" y2="156.0"/>
<line x1="204.0" y1="168.0" x2="216.0" y2="168.0"/>
<line x1="216.0" y1="156.0" x2="216.0" y2="168.0"/>
<line x1="216.0" y1="168.0" x2="216.0" y2="180.0"/>
<line x1="204.0" y1="192.0" x2="216.0" y2="192.0"/>
<line x1="204.0" y1="204.0" x2="216.0" y2="204.0"/>
<line x1="216.0" y1="216.0" x2="216.0" y2="228.0"/>
<line x1="204.0" y1="240.0" x2="216.0" y2="240.0"/>
<line x1="216.0" y1="228.0" x2="216.0" y2="240.0"/>
<line x1="216.0" y1="240.0" x2="216.0" y2="252.0"/>
<line x1="216.0" y1="252.0" x2="216.0" y2="264.0"/>
<line x1="204.0" y1="276.0" x2="216.0" y2="276.0"/>
<line x1="204.0" y1="288.0" x2="216.0" y2="288.0"/>
<line x1="216.0" y1="276.0" x2="216.0" y2="288.0"/>
<line x1="204.0" y1="312.0" x2="216.0" y2="312.0"/>
<line x1="216.0" y1="300.0" x2="216.0" y2="312.0"/>
<line x1="216.0" y1="324.0" x2="216.0" y2="336.0"/>
<line x1="204.0" y1="348.0" x2="216.0" y2="348.0"/>
<line x1="204.0" y1="360.0" x2="216.0" y2="360.0"/>
<line x1="216.0" y1="360.0" x2="216.0" y2="372.0"/>
<line x1="204.0" y1="384.0" x2="216.0" y2="384.0"/>
<line x1="216.0" y1="372.0" x2="216.0" y2="384.0"/>
<line x1="216.0" y1="384.0" x2="216.0" y2="396.0"/>
<line x1="204.0" y1="408.0" x2="216.0" y2="408.0"/>
<line x1="204.0" y1="420.0" x2="216.0" y2="420.0"/>
<line x1="204.0" y1="432.0" x2="216.0" y2="432.0"/>
<line x1="216.0" y1="420.0" x2="216.0" y2="432.0"/>
<line x1="216.0" y1="444.0" x2="216.0" y2="456.0"/>
<line x1="204.0" y1="468.0" x2="216.0" y2="468.0"/>
<line x1="216.0" y1="456.0" x2="216.0" y2="468.0"/>
<line x1="204.0" y1="480.0" x2="216.0" y2="480.0"/>
<line x1="216.0" y1="12.0" x2="228.0" y2="12.0"/>
<line x1="216.0" y1="36.0" x2="228.0" y2="36.0"/>
<line x1="216.0" y1="60.0" x2="228.0" y2="60.0"/>
<line x1="228.0" y1="72.0" x2="228.0" y2="84.0"/>
<line x1="216.0" y1="96.0" x2="228.0" y2="96.0"/>
<line x1="228.0" y1="84.0" x2="228.0" y2="96.0"/>
<line x1="216.0" y1="108.0" x2="228.0" y2="108.0"/>
<line x1="216.0" y1="132.0" x2="228.0" y2="132.0"/>
<line x1="228.0" y1="120.0" x2="228.0" y2="132.0"/>
<line x1="216.0" y1="144.0" x2="228.0" y2="144.0"/>
<line x1="228.0" y1="156.0" x2="228.0" y2="168.0"/>
<line x1="216.0" y1="180.0" x2="228.0" y2="180.0"/>
<line x1="216.0" y1="192.0" x2="228.0" y2="192.0"/>
<line x1="216.0" y1="204.0" x2="228.0" y2="204.0"/>
<line x1="228.0" y1="192.0" x2="228.0" y2="204.0"/>
<line x1="228.0" y1="204.0" x2="228.0" y2="216.0"/>
<line x1="216.0" y1="228.0" x2="228.0" y2="228.0"/>
<line x1="216.0" y1="264.0" x2="228.0" y2="264.0"/>
<line x1="228.0" y1="252.0" x2="228.0" y2="264.0"/>
<line x1="228.0" y1="264.0" x2="228.0" y2="276.0"/>
<line x1="228.0" y1="276.0" x2="228.0" y2="288.0"/>
<line x1="216.0" y1="300.0" x2="228.0" y2="300.0"/>
<line x1="228.0" y1="288.0" x2="228.0" y2="300.0"/>
<line x1="216.0" y1="324.0" x2="228.0" y2="324.0"/>
<line x1="228.0" y1="312.0" x2="228.0" y2="324.0"/>
<line x1="228.0" y1="324.0" x2="228.0" y2="336.0"/>
<line x1="216.0" y1="348.0" x2="228.0" y2="348.0"/>
<line x1="228.0" y1="336.0" x2="228.0" y2="348.0"/>
<line x1="216.0" y1="360.0" x2="228.0" y2="360.0"/>
<line x1="228.0" y1="372.0" x2="228.0" y2="384.0"/>
<line x1="216.0" y1="408.0" x2="228.0" y2="408.0"/>
<line x1="228.0" y1="408.0" x2="228.0" y2="420.0"/>
<line x1="228.0" y1="420.0" x2="228.0" y2="432.0"/>
<line x1="216.0" y1="444.0" x2="228.0" y2="444.0"/>
<line x1="228.0" y1="432.0" x2="228.0" y2="444.0"/>
<line x1="216.0" y1="456.0" x2="228.0" y2="456.0"/>
<line x1="216.0" y1="480.0" x2="228.0" y2="480.0"/>
<line x1="228.0" y1="468.0" x2="228.0" y2="480.0"/>
<line x1="228.0" y1="24.0" x2="240.0" y2="24.0"/>
<line x1="240.0" y1="12.0" x2="240.0" y2="24.0"/>
<line x1="228.0" y1="36.0" x2="240.0" y2="36.0"/>
<line x1="228.0" y1="48.0" x2="240.0" y2="48.0"/>
<line x1="240.0" y1="48.0" x2="240.0" y2="60.0"/>
<line x1="240.0" y1="60.0" x2="240.0" y2="72.0"/>
<line x1="240.0" y1="72.0" x2="240.0" y2="84.0"/>
<line x1="228.0" y1="96.0" x2="240.0" y2="96.0"/>
<line x1="240.0" y1="84.0" x2="240.0" y2="96.0"/>
<line x1="228.0" y1="108.0" x2="240.0" y2="108.0"/>
<line x1="240.0" y1="120.0" x2="240.0" y2="132.0"/>
<line x1="228.0" y1="144.0" x2="240.0" y2="144.0"/>
<line x1="240.0" y1="132.0" x2="240.0" y2="144.0"/>
<line x1="228.0" y1="156.0" x2="240.0" y2="156.0"/>
<line x1="240.0" y1="156.0" x2="240.0" y2="168.0"/>
<line x1="228.0" y1="180.0" x2="240.0" y2="180.0"/>
<line x1="240.0" y1="168.0" x2="240.0" y2="180.0"/>
<line x1="240.0" y1="180.0" x2="240.0" y2="192.0"/>
<line x1="240.0" y1="192.0" x2="240.0" y2="204.0"/>
<line x1="228.0" y1="216.0" x2="240.0" y2="216.0"/>
<line x1="228.0" y1="240.0" x2="240.0" y2="240.0"/>
<line x1="240.0" y1="228.0" x2="240.0" y2="240.0"/>
<line x1="240.0" y1="240.0" x2="240.0" y2="252.0"/>
<line x1="240.0" y1="252.0" x2="240.0" y2="264.0"/>
<line x1="228.0" y1="288.0" x2="240.0" y2="288.0"/>
<line x1="228.0" y1="300.0" x2="240.0" y2="300.0"/>
<line x1="240.0" y1="300.0" x2="240.0" y2="312.0"/>
<line x1="228.0" y1="324.0" x2="240.0" y2="324.0"/>
<line x1="240.0" y1="336.0" x2="240.0" y2="348.0"/>
<line x1="228.0" y1="360.0" x2="240.0" y2="360.0"/>
<line x1="240.0" y1="348.0" x2="240.0" y2="360.0"/>
<line x1="228.0" y1="372.0" x2="240.0" y2="372.0"/>
<line x1="228.0" y1="396.0" x2="240.0" y2="396.0"/>
<line x1="240.0" y1="384.0" x2="240.0" y2="396.0"/>
<line x1="228.0" y1="408.0" x2="240.0" y2="408.0"/>
<line x1="228.0" y1="432.0" x2="240.0" y2="432.0"/>
<line x1="240.0" y1="432.0" x2="240.0" y2="444.0"/>
<line x1="228.0" y1="456.0" x2="240.0" y2="456.0"/>
<line x1="228.0" y1="468.0" x2="240.0" y2="468.0"/>
<line x1="228.0" y1="480.0" x2="240.0" y2="480.0"/>
<line x1="240.0" y1="12.0" x2="252.0" y2="12.0"/>
<line x1="252.0" y1="0.0" x2="252.0" y2="12.0"/>
<line x1="240.0" y1="36.0" x2="252.0" y2="36.0"/>
<line x1="252.0" y1="24.0" x2="252.0" y2="36.0"/>
<line x1="240.0" y1="60.0" x2="252.0" y2="60.0"/>
<line x1="252.0" y1="48.0" x2="252.0" y2="60.0"/>
<line x1="252.0" y1="72.0" x2="252.0" y2="84.0"/>
<line x1="252.0" y1="84.0" x2="252.0" y2="96.0"/>
<line x1="240.0" y1="108.0" x2="252.0" y2="108.0"/>
<line x1="252.0" y1="96.0" x2="252.0" y2="108.0"/>
<line x1="252.0" y1="108.0" x2="252.0" y2="120.0"/>
<line x1="252.0" y1="120.0" x2="252.0" y2="132.0"/>
<line x1="252.0" y1="132.0" x2="252.0" y2="144.0"/>
<line x1="240.0" y1="156.0" x2="252.0" y2="156.0"/>
<line x1="252.0" y1="144.0" x2="252.0" y2="156.0"/>
<line x1="252.0" y1="168.0" x2="252.0" y2="180.0"/>
<line x1="252.0" y1="180.0" x2="252.0" y2="192.0"/>
<line x1="240.0" y1="204.0" x2="252.0" y2="204.0"/>
<line x1="240.0" y1="216.0" x2="252.0" y2="216.0"/>
<line x1="252.0" y1="216.0" x2="252.0" y2="228.0"/>
<line x1="252.0" y1="228.0" x2="252.0" y2="240.0"/>
<line x1="252.0" y1="240.0" x2="252.0" y2="252.0"/>
<line x1="240.0" y1="264.0" x2="252.0" y2="264.0"/>
<line x1="240.0" y1="276.0" x2="252.0" y2="276.0"/>
<line x1="252.0" y1="276.0" x2="252.0" y2="288.0"/>
<line x1="240.0" y1="300.0" x2="252.0" y2="300.0"/>
<line x1="240.0" y1="324.0" x2="252.0" y2="324.0"/>
<line x1="252.0" y1="312.0" x2="252.0" y2="324.0"/>
<line x1="252.0" y1="324.0" x2="252.0" y2="336.0"/>
<line x1="252.0" y1="336.0" x2="252.0" y2="348.0"/>
<line x1="240.0" y1="360.0" x2="252.0" y2="360.0"/>
<line x1="240.0" y1="372.0" x2="252.0" y2="372.0"/>
<line x1="240.0" y1="384.0" x2="252.0" y2="384.0"/>
<line x1="252.0" y1="384.0" x2="252.0" y2="396.0"/>
<line x1="240.0" y1="408.0" x2="252.0" y2="408.0"/>
<line x1="240.0" y1="420.0" x2="252.0" y2="420.0"/>
<line x1="252.0" y1="420.0" x2="252.0" y2="432.0"/>
<line x1="240.0" y1="444.0" x2="252.0" y2="444.0"/>
<line x1="252.0" y1="444.0" x2="252.0" y2="456.0"/>
<line x1="252.0" y1="456.0" x2="252.0" y2="468.0"/>
<line x1="240.0" y1="480.0" x2="252.0" y2="480.0"/>
<line x1="252.0" y1="468.0" x2="252.0" y2="480.0"/>
<line x1="252.0" y1="24.0" x2="264.0" y2="24.0"/>
<line x1="264.0" y1="12.0" x2="264.0" y2="24.0"/>
<line x1="252.0" y1="48.0" x2="264.0" y2="48.0"/>
<line x1="264.0" y1="36.0" x2="264.0" y2="48.0"/>
<line x1="252.0" y1="72.0" x2="264.0" y2="72.0"/>
<line x1="264.0" y1="60.0" x2="264.0" y2="72.0"/>
<line x1="264.0" y1="84.0" x2="264.0" y2="96.0"/>
<line x1="252.0" y1="108.0" x2="264.0" y2="108.0"/>
<line x1="264.0" y1="120.0" x2="264.0" y2="132.0"/>
<line x1="264.0" y1="132.0" x2="264.0" y2="144.0"/>
<line x1="252.0" y1="156.0" x2="264.0" y2="156.0"/>
<line x1="252.0" y1="168.0" x2="264.0" y2="168.0"/>
<line x1="252.0" y1="192.0" x2="264.0" y2="192.0"/>
<line x1="264.0" y1="180.0" x2="264.0" y2="192.0"/>
<line x1="264.0" y1="192.0" x2="264.0" y2="204.0"/>
<line x1="252.0" y1="216.0" x2="264.0" y2="216.0"/>
<line x1="264.0" y1="204.0" x2="264.0" y2="216.0"/>
<line x1="264.0" y1="216.0" x2="264.0" y2="228.0"/>
<line x1="264.0" y1="228.0" x2="264.0" y2="240.0"/>
<line x1="264.0" y1="240.0" x2="264.0" y2="252.0"/>
<line x1="252.0" y1="264.0" x2="264.0" y2="264.0"/>
<line x1="264.0" y1="252.0" x2="264.0" y2="264.0"/>
<line x1="264.0" y1="264.0" x2="264.0" y2="276.0"/>
<line x1="252.0" y1="288.0" x2="264.0" y2="288.0"/>
<line x1="252.0" y1="300.0" x2="264.0" y2="300.0"/>
<line x1="264.0" y1="288.0" x2="264.0" y2="300.0"/>
<line x1="264.0" y1="300.0" x2="264.0" y2="312.0"/>
<line x1="264.0" y1="312.0" x2="264.0" y2="324.0"/>
<line x1="264.0" y1="324.0" x2="264.0" y2="336.0"/>
<line x1="264.0" y1="336.0" x2="264.0" y2="348.0"/>
<line x1="252.0" y1="360.0" x2="264.0" y2="360.0"/>
<line x1="264.0" y1="348.0" x2="264.0" y2="360.0"/>
<line x1="252.0" y1="372.0" x2="264.0" y2="372.0"/>
<line x1="264.0" y1="360.0" x2="264.0" y2="372.0"/>
<line x1="252.0" y1="396.0" x2="264.0" y2="396.0"/>
<line x1="252.0" y1="408.0" x2="264.0" y2="408.0"/>
<line x1="264.0" y1="396.0" x2="264.0" y2="408.0"/>
<line x1="264.0" y1="408.0" x2="264.0" y2="420.0"/>
<line x1="252.0" y1="432.0" x2="264.0" y2="432.0"/>
<line x1="264.0" y1="432.0" x2="264.0" y2="444.0"/>
<line x1="264.0" y1="444.0" x2="264.0" y2="456.0"/>
<line x1="264.0" y1="456.0" x2="264.0" y2="468.0"/>
<line x1="252.0" y1="480.0" x2="264.0" y2="480.0"/>
<line x1="264.0" y1="24.0" x2="276.0" y2="24.0"/>
<line x1="276.0" y1="24.0" x2="276.0" y2="36.0"/>
<line x1="264.0" y1="48.0" x2="276.0" y2="48.0"/>
<line x1="276.0" y1="48.0" x2="276.0" y2="60.0"/>
<line x1="276.0" y1="60.0" x2="276.0" y2="72.0"/>
<line x1="264.0" y1="84.0" x2="276.0" y2="84.0"/>
<line x1="276.0" y1="72.0" x2="276.0" y2="84.0"/>
<line x1="264.0" y1="108.0" x2="276.0" y2="108.0"/>
<line x1="276.0" y1="96.0" x2="276.0" y2="108.0"/>
<line x1="276.0" y1="108.0" x2="276.0" y2="120.0"/>
<line x1="264.0" y1="132.0" x2="276.0" y2="132.0"/>
<line x1="264.0" y1="144.0" x2="276.0" y2="144.0"/>
<line x1="264.0" y1="156.0" x2="276.0" y2="156.0"/>
<line x1="264.0" y1="168.0" x2="276.0" y2="168.0"/>
<line x1="264.0" y1="192.0" x2="276.0" y2="192.0"/>
<line x1="276.0" y1="216.0" x2="276.0" y2="228.0"/>
<line x1="276.0" y1="228.0" x2="276.0" y2="240.0"/>
<line x1="276.0" y1="240.0" x2="276.0" y2="252.0"/>
<line x1="276.0" y1="252.0" x2="276.0" y2="264.0"/>
<line x1="264.0" y1="276.0" x2="276.0" y2="276.0"/>
<line x1="276.0" y1="276.0" x2="276.0" y2="288.0"/>
<line x1="264.0" y1="312.0" x2="276.0" y2="312.0"/>
<line x1="276.0" y1="312.0" x2="276.0" y2="324.0"/>
<line x1="264.0" y1="348.0" x2="276.0" y2="348.0"/>
<line x1="264.0" y1="372.0" x2="276.0" y2="372.0"/>
<line x1="264.0" y1="384.0" x2="276.0" y2="384.0"/>
<line x1="276.0" y1="384.0" x2="276.0" y2="396.0"/>
<line x1="264.0" y1="420.0" x2="276.0" y2="420.0"/>
<line x1="276.0" y1="420.0" x2="276.0" y2="432.0"/>
<line x1="264.0" y1="444.0" x2="276.0" y2="444.0"/>
<line x1="276.0" y1="444.0" x2="276.0" y2="456.0"/>
<line x1="264.0" y1="468.0" x2="276.0" y2="468.0"/>
<line x1="264.0" y1="480.0" x2="276.0" y2="480.0"/>
<line x1="276.0" y1="12.0" x2="288.0" y2="12.0"/>
<line x1="288.0" y1="0.0" x2="288.0" y2="12.0"/>
<line x1="276.0" y1="36.0" x2="288.0" y2="36.0"/>
<line x1="288.0" y1="24.0" x2="288.0" y2="36.0"/>
<line x1="288.0" y1="36.0" x2="288.0" y2="48.0"/>
<line x1="288.0" y1="48.0" x2="288.0" y2="60.0"/>
<line x1="288.0" y1="60.0" x2="288.0" y2="72.0"/>
<line x1="276.0" y1="84.0" x2="288.0" y2="84.0"/>
<line x1="276.0" y1="96.0" x2="288.0" y2="96.0"/>
<line x1="288.0" y1="108.0" x2="288.0" y2="120.0"/>
<line x1="276.0" y1="132.0" x2="288.0" y2="132.0"/>
<line x1="288.0" y1="120.0" x2="288.0" y2="132.0"/>
<line x1="276.0" y1="144.0" x2="288.0" y2="144.0"/>
<line x1="288.0" y1="144.0" x2="288.0" y2="156.0"/>
<line x1="276.0" y1="168.0" x2="288.0" y2="168.0"/>
<line x1="288.0" y1="156.0" x2="288.0" y2="168.0"/>
<line x1="276.0" y1="180.0" x2="288.0" y2="180.0"/>
<line x1="288.0" y1="168.0" x2="288.0" y2="180.0"/>
<line x1="276.0" y1="192.0" x2="288.0" y2="192.0"/>
<line x1="276.0" y1="204.0" x2="288.0" y2="204.0"/>
<line x1="288.0" y1="204.0" x2="288.0" y2="216.0"/>
<line x1="288.0" y1="216.0" x2="288.0" y2="228.0"/>
<line x1="288.0" y1="228.0" x2="288.0" y2="240.0"/>
<line x1="276.0" y1="252.0" x2="288.0" y2="252.0"/>
<line x1="276.0" y1="264.0" x2="288.0" y2="264.0"/>
<line x1="276.0" y1="276.0" x2="288.0" y2="276.0"/>
<line x1="276.0" y1="300.0" x2="288.0" y2="300.0"/>
<line x1="288.0" y1="288.0" x2="288.0" y2="300.0"/>
<line x1="288.0" y1="300.0" x2="288.0" y2="312.0"/>
<line x1="288.0" y1="312.0" x2="288.0" y2="324.0"/>
<line x1="276.0" y1="336.0" x2="288.0" y2="336.0"/>
<line x1="288.0" y1="324.0" x2="288.0" y2="336.0"/>
<line x1="288.0" y1="336.0" x2="288.0" y2="348.0"/>
<line x1="276.0" y1="360.0" x2="288.0" y2="360.0"/>
<line x1="288.0" y1="348.0" x2="288.0" y2="360.0"/>
<line x1="276.0" y1="372.0" x2="288.0" y2="372.0"/>
<line x1="288.0" y1="372.0" x2="288.0" y2="384.0"/>
<line x1="276.0" y1="396.0" x2="288.0" y2="396.0"/>
<line x1="288.0" y1="384.0" x2="288.0" y2="396.0"/>
<line x1="276.0" y1="408.0" x2="288.0" y2="408.0"/>
<line x1="288.0" y1="408.0" x2="288.0" y2="420.0"/>
<line x1="276.0" y1="432.0" x2="288.0" y2="432.0"/>
<line x1="288.0" y1="420.0" x2="288.0" y2="432.0"/>
<line x1="276.0" y1="444.0" x2="288.0" y2="444.0"/>
<line x1="276.0" y1="468.0" x2="288.0" y2="468.0"/>
<line x1="288.0" y1="456.0" x2="288.0" y2="468.0"/>
<line x1="276.0" y1="480.0" x2="288.0" y2="480.0"/>
<line x1="288.0" y1="24.0" x2="300.0" y2="24.0"/>
<line x1="300.0" y1="12.0" x2="300.0" y2="24.0"/>
<line x1="300.0" y1="36.0" x2="300.0" y2="48.0"/>
<line x1="288.0" y1="72.0" x2="300.0" y2="72.0"/>
<line x1="300.0" y1="60.0" x2="300.0" y2="72.0"/>
<line x1="288.0" y1="84.0" x2="300.0" y2="84.0"/>
<line x1="288.0" y1="96.0" x2="300.0" y2="96.0"/>
<line x1="300.0" y1="96.0" x2="300.0" y2="108.0"/>
<line x1="300.0" y1="108.0" x2="300.0" y2="120.0"/>
<line x1="300.0" y1="120.0" x2="300.0" y2="132.0"/>
<line x1="300.0" y1="132.0" x2="300.0" y2="144.0"/>
<line x1="300.0" y1="144.0" x2="300.0" y2="156.0"/>
<line x1="300.0" y1="156.0" x2="300.0" y2="168.0"/>
<line x1="288.0" y1="180.0" x2="300.0" y2="180.0"/>
<line x1="300.0" y1="180.0" x2="300.0" y2="192.0"/>
<line x1="300.0" y1="192.0" x2="300.0" y2="204.0"/>
<line x1="288.0" y1="216.0" x2="300.0" y2="216.0"/>
<line x1="300.0" y1="216.0" x2="300.0" y2="228.0"/>
<line x1="288.0" y1="240.0" x2="300.0" y2="240.0"/>
<line x1="288.0" y1="252.0" x2="300.0" y2="252.0"/>
<line x1="300.0" y1="252.0" x2="300.0" y2="264.0"/>
<line x1="300.0" y1="264.0" x2="300.0" y2="276.0"/>
<line x1="288.0" y1="288.0" x2="300.0" y2="288.0"/>
<line x1="300.0" y1="276.0" x2="300.0" y2="288.0"/>
<line x1="300.0" y1="300.0" x2="300.0" y2="312.0"/>
<line x1="300.0" y1="312.0" x2="300.0" y2="324.0"/>
<line x1="288.0" y1="336.0" x2="300.0" y2="336.0"/>
<line x1="300.0" y1="324.0" x2="300.0" y2="336.0"/>
<line x1="288.0" y1="360.0" x2="300.0" y2="360.0"/>
<line x1="300.0" y1="360.0" x2="300.0" y2="372.0"/>
<line x1="300.0" y1="372.0" x2="300.0" y2="384.0"/>
<line x1="288.0" y1="396.0" x2="300.0" y2="396.0"/>
<line x1="288.0" y1="408.0" x2="300.0" y2="408.0"/>
<line x1="288.0" y1="432.0" x2="300.0" y2="432.0"/>
<line x1="288.0" y1="456.0" x2="300.0" y2="456.0"/>
<line x1="300.0" y1="444.0" x2="300.0" y2="456.0"/>
<line x1="288.0" y1="480.0" x2="300.0" y2="480.0"/>
<line x1="312.0" y1="12.0" x2="312.0" y2="24.0"/>
<line x1="300.0" y1="36.0" x2="312.0" y2="36.0"/>
<line x1="312.0" y1="24.0" x2="312.0" y2="36.0"/>
<line x1="300.0" y1="60.0" x2="312.0" y2="60.0"/>
<line x1="312.0" y1="48.0" x2="312.0" y2="60.0"/>
<line x1="300.0" y1="84.0" x2="312.0" y2="84.0"/>
<line x1="312.0" y1="72.0" x2="312.0" y2="84.0"/>
<line x1="312.0" y1="84.0" x2="312.0" y2="96.0"/>
<line x1="312.0" y1="96.0" x2="312.0" y2="108.0"/>
<line x1="300.0" y1="132.0" x2="312.0" y2="132.0"/>
<line x1="312.0" y1="120.0" x2="312.0" y2="132.0"/>
<line x1="312.0" y1="144.0" x2="312.0" y2="156.0"/>
<line x1="312.0" y1="156.0" x2="312.0" y2="168.0"/>
<line x1="300.0" y1="180.0" x2="312.0" y2="180.0"/>
<line x1="312.0" y1="168.0" x2="312.0" y2="180.0"/>
<line x1="300.0" y1="204.0" x2="312.0" y2="204.0"/>
<line x1="312.0" y1="204.0" x2="312.0" y2="216.0"/>
<line x1="312.0" y1="216.0" x2="312.0" y2="228.0"/>
<line x1="300.0" y1="240.0" x2="312.0" y2="240.0"/>
<line x1="312.0" y1="240.0" x2="312.0" y2="252.0"/>
<line x1="300.0" y1="264.0" x2="312.0" y2="264.0"/>
<line x1="312.0" y1="264.0" x2="312.0" y2="276.0"/>
<line x1="312.0" y1="288.0" x2="312.0" y2="300.0"/>
<line x1="312.0" y1="300.0" x2="312.0" y2="312.0"/>
<line x1="300.0" y1="324.0" x2="312.0" y2="324.0"/>
<line x1="300.0" y1="348.0" x2="312.0" y2="348.0"/>
<line x1="312.0" y1="336.0" x2="312.0" y2="348.0"/>
<line x1="312.0" y1="348.0" x2="312.0" y2="360.0"/>
<line x1="300.0" y1="384.0" x2="312.0" y2="384.0"/>
<line x1="300.0" y1="396.0" x2="312.0" y2="396.0"/>
<line x1="312.0" y1="396.0" x2="312.0" y2="408.0"/>
<line x1="300.0" y1="420.0" x2="312.0" y2="420.0"/>
<line x1="312.0" y1="408.0" x2="312.0" y2="420.0"/>
<line x1="312.0" y1="420.0" x2="312.0" y2="432.0"/>
<line x1="300.0" y1="444.0" x2="312.0" y2="444.0"/>
<line x1="300.0" y1="468.0" x2="312.0" y2="468.0"/>
<line x1="312.0" y1="456.0" x2="312.0" y2="468.0"/>
<line x1="300.0" y1="480.0" x2="312.0" y2="480.0"/>
<line x1="312.0" y1="12.0" x2="324.0" y2="12.0"/>
<line x1="324.0" y1="12.0" x2="324.0" y2="24.0"/>
<line x1="312.0" y1="36.0" x2="324.0" y2="36.0"/>
<line x1="324.0" y1="36.0" x2="324.0" y2="48.0"/>
<line x1="324.0" y1="48.0" x2="324.0" y2="60.0"/>
<line x1="312.0" y1="72.0" x2="324.0" y2="72.0"/>
<line x1="324.0" y1="60.0" x2="324.0" y2="72.0"/>
<line x1="312.0" y1="96.0" x2="324.0" y2="96.0"/>
<line x1="312.0" y1="120.0" x2="324.0" y2="120.0"/>
<line x1="312.0" y1="144.0" x2="324.0" y2="144.0"/>
<line x1="324.0" y1="132.0" x2="324.0" y2="144.0"/>
<line x1="324.0" y1="156.0" x2="324.0" y2="168.0"/>
<line x1="324.0" y1="168.0" x2="324.0" y2="180.0"/>
<line x1="312.0" y1="192.0" x2="324.0" y2="192.0"/>
<line x1="324.0" y1="192.0" x2="324.0" y2="204.0"/>
<line x1="324.0" y1="204.0" x2="324.0" y2="216.0"/>
<line x1="312.0" y1="228.0" x2="324.0" y2="228.0"/>
<line x1="324.0" y1="228.0" x2="324.0" y2="240.0"/>
<line x1="312.0" y1="252.0" x2="324.0" y2="252.0"/>
<line x1="324.0" y1="240.0" x2="324.0" y2="252.0"/>
<line x1="312.0" y1="276.0" x2="324.0" y2="276.0"/>
<line x1="324.0" y1="276.0" x2="324.0" y2="288.0"/>
<line x1="312.0" y1="312.0" x2="324.0" y2="312.0"/>
<line x1="324.0" y1="300.0" x2="324.0" y2="312.0"/>
<line x1="312.0" y1="324.0" x2="324.0" y2="324.0"/>
<line x1="324.0" y1="324.0" x2="324.0" y2="336.0"/>
<line x1="312.0" y1="348.0" x2="324.0" y2="348.0"/>
<line x1="312.0" y1="360.0" x2="324.0" y2="360.0"/>
<line x1="312.0" y1="372.0" x2="324.0" y2="372.0"/>
<line x1="312.0" y1="384.0" x2="324.0" y2="384.0"/>
<line x1="324.0" y1="384.0" x2="324.0" y2="396.0"/>
<line x1="324.0" y1="396.0" x2="324.0" y2="408.0"/>
<line x1="324.0" y1="408.0" x2="324.0" y2="420.0"/>
<line x1="312.0" y1="432.0" x2="324.0" y2="432.0"/>
<line x1="312.0" y1="444.0" x2="324.0" y2="444.0"/>
<line x1="324.0" y1="432.0" x2="324.0" y2="444.0"/>
<line x1="312.0" y1="456.0" x2="324.0" y2="456.0"/>
<line x1="312.0" y1="480.0" x2="324.0" y2="480.0"/>
<line x1="324.0" y1="468.0" x2="324.0" y2="480.0"/>
<line x1="324.0" y1="12.0" x2="336.0" y2="12.0"/>
<line x1="324.0" y1="36.0" x2="336.0" y2="36.0"/>
<line x1="324.0" y1="60.0" x2="336.0" y2="60.0"/>
<line x1="324.0" y1="84.0" x2="336.0" y2="84.0"/>
<line x1="336.0" y1="72.0" x2="336.0" y2="84.0"/>
<line x1="324.0" y1="96.0" x2="336.0" y2="96.0"/>
<line x1="324.0" y1="108.0" x2="336.0" y2="108.0"/>
<line x1="324.0" y1="120.0" x2="336.0" y2="120.0"/>
<line x1="336.0" y1="108.0" x2="336.0" y2="120.0"/>
<line x1="336.0" y1="120.0" x2="336.0" y2="132.0"/>
<line x1="324.0" y1="144.0" x2="336.0" y2="144.0"/>
<line x1="324.0" y1="156.0" x2="336.0" y2="156.0"/>
<line x1="336.0" y1="168.0" x2="336.0" y2="180.0"/>
<line x1="324.0" y1="192.0" x2="336.0" y2="192.0"/>
<line x1="336.0" y1="180.0" x2="336.0" y2="192.0"/>
<line x1="324.0" y1="216.0" x2="336.0" y2="216.0"/>
<line x1="336.0" y1="216.0" x2="336.0" y2="228.0"/>
<line x1="336.0" y1="228.0" x2="336.0" y2="240.0"/>
<line x1="324.0" y1="252.0" x2="336.0" y2="252.0"/>
<line x1="324.0" y1="264.0" x2="336.0" y2="264.0"/>
<line x1="336.0" y1="264.0" x2="336.0" y2="276.0"/>
<line x1="324.0" y1="288.0" x2="336.0" y2="288.0"/>
<line x1="324.0" y1="300.0" x2="336.0" y2="300.0"/>
<line x1="324.0" y1="324.0" x2="336.0" y2="324.0"/>
<line x1="324.0" y1="336.0" x2="336.0" y2="336.0"/>
<line x1="324.0" y1="360.0" x2="336.0" y2="360.0"/>
<line x1="336.0" y1="348.0" x2="336.0" y2="360.0"/>
<line x1="324.0" y1="372.0" x2="336.0" y2="372.0"/>
<line x1="336.0" y1="372.0" x2="336.0" y2="384.0"/>
<line x1="324.0" y1="396.0" x2="336.0" y2="396.0"/>
<line x1="336.0" y1="384.0" x2="336.0" y2="396.0"/>
<line x1="324.0" y1="420.0" x2="336.0" y2="420.0"/>
<line x1="336.0" y1="420.0" x2="336.0" y2="432.0"/>
<line x1="324.0" y1="444.0" x2="336.0" y2="444.0"/>
<line x1="324.0" y1="456.0" x2="336.0" y2="456.0"/>
<line x1="336.0" y1="456.0" x2="336.0" y2="468.0"/>
<line x1="324.0" y1="480.0" x2="336.0" y2="480.0"/>
<line x1="336.0" y1="468.0" x2="336.0" y2="480.0"/>
<line x1="348.0" y1="0.0" x2="348.0" y2="12.0"/>
<line x1="336.0" y1="24.0" x2="348.0" y2="24.0"/>
<line x1="348.0" y1="12.0" x2="348.0" y2="24.0"/>
<line x1="348.0" y1="24.0" x2="348.0" y2="36.0"/>
<line x1="336.0" y1="48.0" x2="348.0" y2="48.0"/>
<line x1="348.0" y1="36.0" x2="348.0" y2="48.0"/>
<line x1="336.0" y1="60.0" x2="348.0" y2="60.0"/>
<line x1="348.0" y1="60.0" x2="348.0" y2="72.0"/>
<line x1="336.0" y1="84.0" x2="348.0" y2="84.0"/>
<line x1="336.0" y1="96.0" x2="348.0" y2="96.0"/>
<line x1="348.0" y1="84.0" x2="348.0" y2="96.0"/>
<line x1="348.0" y1="96.0" x2="348.0" y2="108.0"/>
<line x1="348.0" y1="108.0" x2="348.0" y2="120.0"/>
<line x1="348.0" y1="120.0" x2="348.0" y2="132.0"/>
<line x1="336.0" y1="144.0" x2="348.0" y2="144.0"/>
<line x1="348.0" y1="132.0" x2="348.0" y2="144.0"/>
<line x1="336.0" y1="156.0" x2="348.0" y2="156.0"/>
<line x1="336.0" y1="168.0" x2="348.0" y2="168.0"/>
<line x1="348.0" y1="156.0" x2="348.0" y2="168.0"/>
<line x1="348.0" y1="180.0" x2="348.0" y2="192.0"/>
<line x1="336.0" y1="204.0" x2="348.0" y2="204.0"/>
<line x1="348.0" y1="192.0" x2="348.0" y2="204.0"/>
<line x1="348.0" y1="204.0" x2="348.0" y2="216.0"/>
<line x1="336.0" y1="228.0" x2="348.0" y2="228.0"/>
<line x1="348.0" y1="228.0" x2="348.0" y2="240.0"/>
<line x1="336.0" y1="252.0" x2="348.0" y2="252.0"/>
<line x1="336.0" y1="264.0" x2="348.0" y2="264.0"/>
<line x1="348.0" y1="252.0" x2="348.0" y2="264.0"/>
<line x1="336.0" y1="288.0" x2="348.0" y2="288.0"/>
<line x1="348.0" y1="276.0" x2="348.0" y2="288.0"/>
<line x1="336.0" y1="300.0" x2="348.0" y2="300.0"/>
<line x1="336.0" y1="312.0" x2="348.0" y2="312.0"/>
<line x1="348.0" y1="312.0" x2="348.0" y2="324.0"/>
<line x1="336.0" y1="336.0" x2="348.0" y2="336.0"/>
<line x1="348.0" y1="324.0" x2="348.0" y2="336.0"/>
<line x1="336.0" y1="348.0" x2="348.0" y2="348.0"/>
<line x1="336.0" y1="372.0" x2="348.0" y2="372.0"/>
<line x1="348.0" y1="384.0" x2="348.0" y2="396.0"/>
<line x1="336.0" y1="408.0" x2="348.0" y2="408.0"/>
<line x1="348.0" y1="396.0" x2="348.0" y2="408.0"/>
<line x1="348.0" y1="408.0" x2="348.0" y2="420.0"/>
<line x1="348.0" y1="420.0" x2="348.0" y2="432.0"/>
<line x1="336.0" y1="444.0" x2="348.0" y2="444.0"/>
<line x1="348.0" y1="432.0" x2="348.0" y2="444.0"/>
<line x1="348.0" y1="456.0" x2="348.0" y2="468.0"/>
<line x1="336.0" y1="480.0" x2="348.0" y2="480.0"/>
<line x1="360.0" y1="12.0" x2="360.0" y2="24.0"/>
<line x1="348.0" y1="48.0" x2="360.0" y2="48.0"/>
<line x1="360.0" y1="36.0" x2="360.0" y2="48.0"/>
<line x1="360.0" y1="48.0" x2="360.0" y2="60.0"/>
<line x1="348.0" y1="72.0" x2="360.0" y2="72.0"/>
<line x1="360.0" y1="72.0" x2="360.0" y2="84.0"/>
<line x1="360.0" y1="96.0" x2="360.0" y2="108.0"/>
<line x1="348.0" y1="120.0" x2="360.0" y2="120.0"/>
<line x1="360.0" y1="132.0" x2="360.0" y2="144.0"/>
<line x1="360.0" y1="144.0" x2="360.0" y2="156.0"/>
<line x1="348.0" y1="168.0" x2="360.0" y2="168.0"/>
<line x1="360.0" y1="180.0" x2="360.0" y2="192.0"/>
<line x1="360.0" y1="192.0" x2="360.0" y2="204.0"/>
<line x1="348.0" y1="216.0" x2="360.0" y2="216.0"/>
<line x1="360.0" y1="204.0" x2="360.0" y2="216.0"/>
<line x1="360.0" y1="216.0" x2="360.0" y2="228.0"/>
<line x1="348.0" y1="240.0" x2="360.0" y2="240.0"/>
<line x1="348.0" y1="252.0" x2="360.0" y2="252.0"/>
<line x1="348.0" y1="276.0" x2="360.0" y2="276.0"/>
<line x1="360.0" y1="264.0" x2="360.0" y2="276.0"/>
<line x1="348.0" y1="300.0" x2="360.0" y2="300.0"/>
<line x1="360.0" y1="288.0" x2="360.0" y2="300.0"/>
<line x1="348.0" y1="312.0" x2="360.0" y2="312.0"/>
<line x1="360.0" y1="324.0" x2="360.0" y2="336.0"/>
<line x1="348.0" y1="348.0" x2="360.0" y2="348.0"/>
<line x1="360.0" y1="336.0" x2="360.0" y2="348.0"/>
<line x1="348.0" y1="360.0" x2="360.0" y2="360.0"/>
<line x1="348.0" y1="372.0" x2="360.0" y2="372.0"/>
<line x1="360.0" y1="372.0" x2="360.0" y2="384.0"/>
<line x1="360.0" y1="384.0" x2="360.0" y2="396.0"/>
<line x1="348.0" y1="408.0" x2="360.0" y2="408.0"/>
<line x1="348.0" y1="444.0" x2="360.0" y2="444.0"/>
<line x1="360.0" y1="432.0" x2="360.0" y2="444.0"/>
<line x1="348.0" y1="468.0" x2="360.0" y2="468.0"/>
<line x1="360.0" y1="456.0" x2="360.0" y2="468.0"/>
<line x1="348.0" y1="480.0" x2="360.0" y2="480.0"/>
<line x1="360.0" y1="12.0" x2="372.0" y2="12.0"/>
<line x1="372.0" y1="12.0" x2="372.0" y2="24.0"/>
<line x1="360.0" y1="36.0" x2="372.0" y2="36.0"/>
<line x1="372.0" y1="24.0" x2="372.0" y2="36.0"/>
<line x1="360.0" y1="60.0" x2="372.0" y2="60.0"/>
<line x1="372.0" y1="60.0" x2="372.0" y2="72.0"/>
<line x1="360.0" y1="84.0" x2="372.0" y2="84.0"/>
<line x1="360.0" y1="96.0" x2="372.0" y2="96.0"/>
<line x1="360.0" y1="120.0" x2="372.0" y2="120.0"/>
<line x1="372.0" y1="120.0" x2="372.0" y2="132.0"/>
<line x1="360.0" y1="144.0" x2="372.0" y2="144.0"/>
<line x1="360.0" y1="156.0" x2="372.0" y2="156.0"/>
<line x1="372.0" y1="156.0" x2="372.0" y2="168.0"/>
<line x1="360.0" y1="180.0" x2="372.0" y2="180.0"/>
<line x1="372.0" y1="168.0" x2="372.0" y2="180.0"/>
<line x1="360.0" y1="204.0" x2="372.0" y2="204.0"/>
<line x1="360.0" y1="228.0" x2="372.0" y2="228.0"/>
<line x1="360.0" y1="240.0" x2="372.0" y2="240.0"/>
<line x1="372.0" y1="240.0" x2="372.0" y2="252.0"/>
<line x1="360.0" y1="264.0" x2="372.0" y2="264.0"/>
<line x1="372.0" y1="252.0" x2="372.0" y2="264.0"/>
<line x1="360.0" y1="276.0" x2="372.0" y2="276.0"/>
<line x1="372.0" y1="276.0" x2="372.0" y2="288.0"/>
<line x1="360.0" y1="300.0" x2="372.0" y2="300.0"/>
<line x1="360.0" y1="312.0" x2="372.0" y2="312.0"/>
<line x1="360.0" y1="324.0" x2="372.0" y2="324.0"/>
<line x1="360.0" y1="348.0" x2="372.0" y2="348.0"/>
<line x1="372.0" y1="336.0" x2="372.0" y2="348.0"/>
<line x1="360.0" y1="360.0" x2="372.0" y2="360.0"/>
<line x1="372.0" y1="372.0" x2="372.0" y2="384.0"/>
<line x1="360.0" y1="396.0" x2="372.0" y2="396.0"/>
<line x1="372.0" y1="384.0" x2="372.0" y2="396.0"/>
<line x1="360.0" y1="408.0" x2="372.0" y2="408.0"/>
<line x1="360.0" y1="420.0" x2="372.0" y2="420.0"/>
<line x1="360.0" y1="432.0" x2="372.0" y2="432.0"/>
<line x1="360.0" y1="456.0" x2="372.0" y2="456.0"/>
<line x1="372.0" y1="444.0" x2="372.0" y2="456.0"/>
<line x1="360.0" y1="480.0" x2="372.0" y2="480.0"/>
<line x1="372.0" y1="468.0" x2="372.0" y2="480.0"/>
<line x1="384.0" y1="12.0" x2="384.0" y2="24.0"/>
<line x1="372.0" y1="36.0" x2="384.0" y2="36.0"/>
<line x1="372.0" y1="48.0" x2="384.0" y2="48.0"/>
<line x1="372.0" y1="60.0" x2="384.0" y2="60.0"/>
<line x1="372.0" y1="84.0" x2="384.0" y2="84.0"/>
<line x1="384.0" y1="72.0" x2="384.0" y2="84.0"/>
<line x1="372.0" y1="96.0" x2="384.0" y2="96.0"/>
<line x1="372.0" y1="108.0" x2="384.0" y2="108.0"/>
<line x1="384.0" y1="108.0" x2="384.0" y2="120.0"/>
<line x1="372.0" y1="132.0" x2="384.0" y2="132.0"/>
<line x1="384.0" y1="120.0" x2="384.0" y2="132.0"/>
<line x1="384.0" y1="132.0" x2="384.0" y2="144.0"/>
<line x1="384.0" y1="144.0" x2="384.0" y2="156.0"/>
<line x1="372.0" y1="168.0" x2="384.0" y2="168.0"/>
<line x1="372.0" y1="192.0" x2="384.0" y2="192.0"/>
<line x1="384.0" y1="180.0" x2="384.0" y2="192.0"/>
<line x1="384.0" y1="192.0" x2="384.0" y2="204.0"/>
<line x1="372.0" y1="216.0" x2="384.0" y2="216.0"/>
<line x1="384.0" y1="204.0" x2="384.0" y2="216.0"/>
<line x1="384.0" y1="216.0" x2="384.0" y2="228.0"/>
<line x1="372.0" y1="240.0" x2="384.0" y2="240.0"/>
<line x1="384.0" y1="228.0" x2="384.0" y2="240.0"/>
<line x1="372.0" y1="264.0" x2="384.0" y2="264.0"/>
<line x1="384.0" y1="264.0" x2="384.0" y2="276.0"/>
<line x1="384.0" y1="276.0" x2="384.0" y2="288.0"/>
<line x1="372.0" y1="300.0" x2="384.0" y2="300.0"/>
<line x1="372.0" y1="312.0" x2="384.0" y2="312.0"/>
<line x1="372.0" y1="324.0" x2="384.0" y2="324.0"/>
<line x1="384.0" y1="324.0" x2="384.0" y2="336.0"/>
<line x1="372.0" y1="348.0" x2="384.0" y2="348.0"/>
<line x1="372.0" y1="360.0" x2="384.0" y2="360.0"/>
<line x1="372.0" y1="372.0" x2="384.0" y2="372.0"/>
<line x1="384.0" y1="360.0" x2="384.0" y2="372.0"/>
<line x1="372.0" y1="396.0" x2="384.0" y2="396.0"/>
<line x1="372.0" y1="408.0" x2="384.0" y2="408.0"/>
<line x1="372.0" y1="420.0" x2="384.0" y2="420.0"/>
<line x1="384.0" y1="420.0" x2="384.0" y2="432.0"/>
<line x1="384.0" y1="432.0" x2="384.0" y2="444.0"/>
<line x1="372.0" y1="456.0" x2="384.0" y2="456.0"/>
<line x1="384.0" y1="444.0" x2="384.0" y2="456.0"/>
<line x1="384.0" y1="456.0" x2="384.0" y2="468.0"/>
<line x1="372.0" y1="480.0" x2="384.0" y2="480.0"/>
<line x1="396.0" y1="0.0" x2="396.0" y2="12.0"/>
<line x1="384.0" y1="24.0" x2="396.0" y2="24.0"/>
<line x1="396.0" y1="12.0" x2="396.0" y2="24.0"/>
<line x1="396.0" y1="24.0" x2="396.0" y2="36.0"/>
<line x1="384.0" y1="48.0" x2="396.0" y2="48.0"/>
<line x1="396.0" y1="36.0" x2="396.0" y2="48.0"/>
<line x1="384.0" y1="60.0" x2="396.0" y2="60.0"/>
<line x1="384.0" y1="72.0" x2="396.0" y2="72.0"/>
<line x1="384.0" y1="96.0" x2="396.0" y2="96.0"/>
<line x1="396.0" y1="84.0" x2="396.0" y2="96.0"/>
<line x1="396.0" y1="96.0" x2="396.0" y2="108.0"/>
<line x1="396.0" y1="108.0" x2="396.0" y2="120.0"/>
<line x1="396.0" y1="132.0" x2="396.0" y2="144.0"/>
<line x1="384.0" y1="156.0" x2="396.0" y2="156.0"/>
<line x1="396.0" y1="144.0" x2="396.0" y2="156.0"/>
<line x1="384.0" y1="168.0" x2="396.0" y2="168.0"/>
<line x1="396.0" y1="168.0" x2="396.0" y2="180.0"/>
<line x1="396.0" y1="180.0" x2="396.0" y2="192.0"/>
<line x1="396.0" y1="192.0" x2="396.0" y2="204.0"/>
<line x1="396.0" y1="204.0" x2="396.0" y2="216.0"/>
<line x1="396.0" y1="216.0" x2="396.0" y2="228.0"/>
<line x1="384.0" y1="240.0" x2="396.0" y2="240.0"/>
<line x1="384.0" y1="252.0" x2="396.0" y2="252.0"/>
<line x1="396.0" y1="252.0" x2="396.0" y2="264.0"/>
<line x1="396.0" y1="264.0" x2="396.0" y2="276.0"/>
<line x1="384.0" y1="288.0" x2="396.0" y2="288.0"/>
<line x1="384.0" y1="300.0" x2="396.0" y2="300.0"/>
<line x1="396.0" y1="288.0" x2="396.0" y2="300.0"/>
<line x1="396.0" y1="300.0" x2="396.0" y2="312.0"/>
<line x1="396.0" y1="312.0" x2="396.0" y2="324.0"/>
<line x1="384.0" y1="336.0" x2="396.0" y2="336.0"/>
<line x1="384.0" y1="348.0" x2="396.0" y2="348.0"/>
<line x1="396.0" y1="348.0" x2="396.0" y2="360.0"/>
<line x1="396.0" y1="360.0" x2="396.0" y2="372.0"/>
<line x1="384.0" y1="384.0" x2="396.0" y2="384.0"/>
<line x1="396.0" y1="372.0" x2="396.0" y2="384.0"/>
<line x1="396.0" y1="384.0" x2="396.0" y2="396.0"/>
<line x1="384.0" y1="408.0" x2="396.0" y2="408.0"/>
<line x1="396.0" y1="396.0" x2="396.0" y2="408.0"/>
<line x1="396.0" y1="408.0" x2="396.0" y2="420.0"/>
<line x1="384.0" y1="432.0" x2="396.0" y2="432.0"/>
<line x1="396.0" y1="444.0" x2="396.0" y2="456.0"/>
<line x1="396.0" y1="456.0" x2="396.0" y2="468.0"/>
<line x1="384.0" y1="480.0" x2="396.0" y2="480.0"/>
<line x1="408.0" y1="12.0" x2="408.0" y2="24.0"/>
<line x1="408.0" y1="24.0" x2="408.0" y2="36.0"/>
<line x1="396.0" y1="48.0" x2="408.0" y2="48.0"/>
<line x1="396.0" y1="60.0" x2="408.0" y2="60.0"/>
<line x1="396.0" y1="72.0" x2="408.0" y2="72.0"/>
<line x1="408.0" y1="72.0" x2="408.0" y2="84.0"/>
<line x1="408.0" y1="84.0" x2="408.0" y2="96.0"/>
<line x1="408.0" y1="96.0" x2="408.0" y2="108.0"/>
<line x1="396.0" y1="120.0" x2="408.0" y2="120.0"/>
<line x1="396.0" y1="132.0" x2="408.0" y2="132.0"/>
<line x1="408.0" y1="144.0" x2="408.0" y2="156.0"/>
<line x1="396.0" y1="168.0" x2="408.0" y2="168.0"/>
<line x1="408.0" y1="156.0" x2="408.0" y2="168.0"/>
<line x1="408.0" y1="180.0" x2="408.0" y2="192.0"/>
<line x1="396.0" y1="204.0" x2="408.0" y2="204.0"/>
<line x1="408.0" y1="192.0" x2="408.0" y2="204.0"/>
<line x1="408.0" y1="216.0" x2="408.0" y2="228.0"/>
<line x1="396.0" y1="240.0" x2="408.0" y2="240.0"/>
<line x1="408.0" y1="240.0" x2="408.0" y2="252.0"/>
<line x1="408.0" y1="252.0" x2="408.0" y2="264.0"/>
<line x1="396.0" y1="276.0" x2="408.0" y2="276.0"/>
<line x1="408.0" y1="276.0" x2="408.0" y2="288.0"/>
<line x1="408.0" y1="288.0" x2="408.0" y2="300.0"/>
<line x1="408.0" y1="300.0" x2="408.0" y2="312.0"/>
<line x1="396.0" y1="324.0" x2="408.0" y2="324.0"/>
<line x1="408.0" y1="324.0" x2="408.0" y2="336.0"/>
<line x1="396.0" y1="348.0" x2="408.0" y2="348.0"/>
<line x1="408.0" y1="360.0" x2="408.0" y2="372.0"/>
<line x1="408.0" y1="372.0" x2="408.0" y2="384.0"/>
<line x1="408.0" y1="384.0" x2="408.0" y2="396.0"/>
<line x1="408.0" y1="396.0" x2="408.0" y2="408.0"/>
<line x1="408.0" y1="408.0" x2="408.0" y2="420.0"/>
<line x1="396.0" y1="432.0" x2="408.0" y2="432.0"/>
<line x1="408.0" y1="420.0" x2="408.0" y2="432.0"/>
<line x1="396.0" y1="444.0" x2="408.0" y2="444.0"/>
<line x1="396.0" y1="456.0" x2="408.0" y2="456.0"/>
<line x1="396.0" y1="480.0" x2="408.0" y2="480.0"/>
<line x1="408.0" y1="468.0" x2="408.0" y2="480.0"/>
<line x1="408.0" y1="24.0" x2="420.0" y2="24.0"/>
<line x1="408.0" y1="48.0" x2="420.0" y2="48.0"/>
<line x1="420.0" y1="36.0" x2="420.0" y2="48.0"/>
<line x1="408.0" y1="60.0" x2="420.0" y2="60.0"/>
<line x1="420.0" y1="60.0" x2="420.0" y2="72.0"/>
<line x1="420.0" y1="72.0" x2="420.0" y2="84.0"/>
<line x1="420.0" y1="84.0" x2="420.0" y2="96.0"/>
<line x1="408.0" y1="108.0" x2="420.0" y2="108.0"/>
<line x1="408.0" y1="120.0" x2="420.0" y2="120.0"/>
<line x1="420.0" y1="120.0" x2="420.0" y2="132.0"/>
<line x1="408.0" y1="144.0" x2="420.0" y2="144.0"/>
<line x1="420.0" y1="132.0" x2="420.0" y2="144.0"/>
<line x1="420.0" y1="144.0" x2="420.0" y2="156.0"/>
<line x1="420.0" y1="156.0" x2="420.0" y2="168.0"/>
<line x1="408.0" y1="180.0" x2="420.0" y2="180.0"/>
<line x1="420.0" y1="192.0" x2="420.0" y2="204.0"/>
<line x1="408.0" y1="216.0" x2="420.0" y2="216.0"/>
<line x1="420.0" y1="204.0" x2="420.0" y2="216.0"/>
<line x1="420.0" y1="216.0" x2="420.0" y2="228.0"/>
<line x1="420.0" y1="228.0" x2="420.0" y2="240.0"/>
<line x1="408.0" y1="252.0" x2="420.0" y2="252.0"/>
<line x1="420.0" y1="240.0" x2="420.0" y2="252.0"/>
<line x1="408.0" y1="276.0" x2="420.0" y2="276.0"/>
<line x1="420.0" y1="264.0" x2="420.0" y2="276.0"/>
<line x1="408.0" y1="300.0" x2="420.0" y2="300.0"/>
<line x1="420.0" y1="288.0" x2="420.0" y2="300.0"/>
<line x1="408.0" y1="324.0" x2="420.0" y2="324.0"/>
<line x1="420.0" y1="312.0" x2="420.0" y2="324.0"/>
<line x1="408.0" y1="336.0" x2="420.0" y2="336.0"/>
<line x1="408.0" y1="348.0" x2="420.0" y2="348.0"/>
<line x1="420.0" y1="348.0" x2="420.0" y2="360.0"/>
<line x1="408.0" y1="372.0" x2="420.0" y2="372.0"/>
<line x1="420.0" y1="360.0" x2="420.0" y2="372.0"/>
<line x1="420.0" y1="384.0" x2="420.0" y2="396.0"/>
<line x1="408.0" y1="408.0" x2="420.0" y2="408.0"/>
<line x1="408.0" y1="432.0" x2="420.0" y2="432.0"/>
<line x1="408.0" y1="444.0" x2="420.0" y2="444.0"/>
<line x1="408.0" y1="468.0" x2="420.0" y2="468.0"/>
<line x1="420.0" y1="456.0" x2="420.0" y2="468.0"/>
<line x1="408.0" y1="480.0" x2="420.0" y2="480.0"/>
<line x1="420.0" y1="12.0" x2="432.0" y2="12.0"/>
<line x1="420.0" y1="24.0" x2="432.0" y2="24.0"/>
<line x1="432.0" y1="24.0" x2="432.0" y2="36.0"/>
<line x1="420.0" y1="48.0" x2="432.0" y2="48.0"/>
<line x1="432.0" y1="60.0" x2="432.0" y2="72.0"/>
<line x1="420.0" y1="84.0" x2="432.0" y2="84.0"/>
<line x1="420.0" y1="108.0" x2="432.0" y2="108.0"/>
<line x1="432.0" y1="96.0" x2="432.0" y2="108.0"/>
<line x1="420.0" y1="120.0" x2="432.0" y2="120.0"/>
<line x1="432.0" y1="120.0" x2="432.0" y2="132.0"/>
<line x1="432.0" y1="144.0" x2="432.0" y2="156.0"/>
<line x1="420.0" y1="180.0" x2="432.0" y2="180.0"/>
<line x1="432.0" y1="168.0" x2="432.0" y2="180.0"/>
<line x1="432.0" y1="180.0" x2="432.0" y2="192.0"/>
<line x1="432.0" y1="192.0" x2="432.0" y2="204.0"/>
<line x1="420.0" y1="216.0" x2="432.0" y2="216.0"/>
<line x1="432.0" y1="228.0" x2="432.0" y2="240.0"/>
<line x1="420.0" y1="252.0" x2="432.0" y2="252.0"/>
<line x1="420.0" y1="264.0" x2="432.0" y2="264.0"/>
<line x1="432.0" y1="264.0" x2="432.0" y2="276.0"/>
<line x1="420.0" y1="288.0" x2="432.0" y2="288.0"/>
<line x1="420.0" y1="312.0" x2="432.0" y2="312.0"/>
<line x1="432.0" y1="300.0" x2="432.0" y2="312.0"/>
<line x1="420.0" y1="336.0" x2="432.0" y2="336.0"/>
<line x1="432.0" y1="336.0" x2="432.0" y2="348.0"/>
<line x1="432.0" y1="348.0" x2="432.0" y2="360.0"/>
<line x1="432.0" y1="360.0" x2="432.0" y2="372.0"/>
<line x1="420.0" y1="384.0" x2="432.0" y2="384.0"/>
<line x1="432.0" y1="372.0" x2="432.0" y2="384.0"/>
<line x1="420.0" y1="396.0" x2="432.0" y2="396.0"/>
<line x1="432.0" y1="396.0" x2="432.0" y2="408.0"/>
<line x1="420.0" y1="420.0" x2="432.0" y2="420.0"/>
<line x1="432.0" y1="408.0" x2="432.0" y2="420.0"/>
<line x1="432.0" y1="420.0" x2="432.0" y2="432.0"/>
<line x1="420.0" y1="444.0" x2="432.0" y2="444.0"/>
<line x1="432.0" y1="432.0" x2="432.0" y2="444.0"/>
<line x1="432.0" y1="444.0" x2="432.0" y2="456.0"/>
<line x1="432.0" y1="456.0" x2="432.0" y2="468.0"/>
<line x1="420.0" y1="480.0" x2="432.0" y2="480.0"/>
<line x1="432.0" y1="12.0" x2="444.0" y2="12.0"/>
<line x1="444.0" y1="12.0" x2="444.0" y2="24.0"/>
<line x1="432.0" y1="36.0" x2="444.0" y2="36.0"/>
<line x1="444.0" y1="36.0" x2="444.0" y2="48.0"/>
<line x1="432.0" y1="60.0" x2="444.0" y2="60.0"/>
<line x1="444.0" y1="48.0" x2="444.0" y2="60.0"/>
<line x1="444.0" y1="60.0" x2="444.0" y2="72.0"/>
<line x1="432.0" y1="84.0" x2="444.0" y2="84.0"/>
<line x1="444.0" y1="72.0" x2="444.0" y2="84.0"/>
<line x1="432.0" y1="96.0" x2="444.0" y2="96.0"/>
<line x1="444.0" y1="108.0" x2="444.0" y2="120.0"/>
<line x1="444.0" y1="120.0" x2="444.0" y2="132.0"/>
<line x1="432.0" y1="144.0" x2="444.0" y2="144.0"/>
<line x1="444.0" y1="132.0" x2="444.0" y2="144.0"/>
<line x1="444.0" y1="144.0" x2="444.0" y2="156.0"/>
<line x1="432.0" y1="168.0" x2="444.0" y2="168.0"/>
<line x1="444.0" y1="156.0" x2="444.0" y2="168.0"/>
<line x1="444.0" y1="180.0" x2="444.0" y2="192.0"/>
<line x1="432.0" y1="204.0" x2="444.0" y2="204.0"/>
<line x1="432.0" y1="228.0" x2="444.0" y2="228.0"/>
<line x1="444.0" y1="216.0" x2="444.0" y2="228.0"/>
<line x1="432.0" y1="240.0" x2="444.0" y2="240.0"/>
<line x1="444.0" y1="240.0" x2="444.0" y2="252.0"/>
<line x1="432.0" y1="264.0" x2="444.0" y2="264.0"/>
<line x1="444.0" y1="252.0" x2="444.0" y2="264.0"/>
<line x1="432.0" y1="288.0" x2="444.0" y2="288.0"/>
<line x1="444.0" y1="288.0" x2="444.0" y2="300.0"/>
<line x1="432.0" y1="312.0" x2="444.0" y2="312.0"/>
<line x1="432.0" y1="324.0" x2="444.0" y2="324.0"/>
<line x1="444.0" y1="336.0" x2="444.0" y2="348.0"/>
<line x1="432.0" y1="360.0" x2="444.0" y2="360.0"/>
<line x1="444.0" y1="348.0" x2="444.0" y2="360.0"/>
<line x1="444.0" y1="372.0" x2="444.0" y2="384.0"/>
<line x1="444.0" y1="384.0" x2="444.0" y2="396.0"/>
<line x1="444.0" y1="396.0" x2="444.0" y2="408.0"/>
<line x1="444.0" y1="408.0" x2="444.0" y2="420.0"/>
<line x1="444.0" y1="420.0" x2="444.0" y2="432.0"/>
<line x1="444.0" y1="432.0" x2="444.0" y2="444.0"/>
<line x1="432.0" y1="468.0" x2="444.0" y2="468.0"/>
<line x1="432.0" y1="480.0" x2="444.0" y2="480.0"/>
<line x1="444.0" y1="12.0" x2="456.0" y2="12.0"/>
<line x1="444.0" y1="36.0" x2="456.0" y2="36.0"/>
<line x1="456.0" y1="48.0" x2="456.0" y2="60.0"/>
<line x1="456.0" y1="60.0" x2="456.0" y2="72.0"/>
<line x1="444.0" y1="84.0" x2="456.0" y2="84.0"/>
<line x1="444.0" y1="96.0" x2="456.0" y2="96.0"/>
<line x1="444.0" y1="108.0" x2="456.0" y2="108.0"/>
<line x1="444.0" y1="132.0" x2="456.0" y2="132.0"/>
<line x1="456.0" y1="144.0" x2="456.0" y2="156.0"/>
<line x1="456.0" y1="156.0" x2="456.0" y2="168.0"/>
<line x1="444.0" y1="180.0" x2="456.0" y2="180.0"/>
<line x1="456.0" y1="168.0" x2="456.0" y2="180.0"/>
<line x1="444.0" y1="192.0" x2="456.0" y2="192.0"/>
<line x1="444.0" y1="204.0" x2="456.0" y2="204.0"/>
<line x1="456.0" y1="204.0" x2="456.0" y2="216.0"/>
<line x1="444.0" y1="228.0" x2="456.0" y2="228.0"/>
<line x1="456.0" y1="240.0" x2="456.0" y2="252.0"/>
<line x1="456.0" y1="252.0" x2="456.0" y2="264.0"/>
<line x1="444.0" y1="276.0" x2="456.0" y2="276.0"/>
<line x1="456.0" y1="264.0" x2="456.0" y2="276.0"/>
<line x1="444.0" y1="288.0" x2="456.0" y2="288.0"/>
<line x1="456.0" y1="276.0" x2="456.0" y2="288.0"/>
<line x1="444.0" y1="312.0" x2="456.0" y2="312.0"/>
<line x1="456.0" y1="300.0" x2="456.0" y2="312.0"/>
<line x1="444.0" y1="324.0" x2="456.0" y2="324.0"/>
<line x1="444.0" y1="336.0" x2="456.0" y2="336.0"/>
<line x1="456.0" y1="348.0" x2="456.0" y2="360.0"/>
<line x1="444.0" y1="372.0" x2="456.0" y2="372.0"/>
<line x1="456.0" y1="360.0" x2="456.0" y2="372.0"/>
<line x1="444.0" y1="396.0" x2="456.0" y2="396.0"/>
<line x1="456.0" y1="396.0" x2="456.0" y2="408.0"/>
<line x1="456.0" y1="408.0" x2="456.0" y2="420.0"/>
<line x1="444.0" y1="432.0" x2="456.0" y2="432.0"/>
<line x1="444.0" y1="456.0" x2="456.0" y2="456.0"/>
<line x1="456.0" y1="444.0" x2="456.0" y2="456.0"/>
<line x1="444.0" y1="468.0" x2="456.0" y2="468.0"/>
<line x1="456.0" y1="456.0" x2="456.0" y2="468.0"/>
<line x1="444.0" y1="480.0" x2="456.0" y2="480.0"/>
<line x1="456.0" y1="12.0" x2="468.0" y2="12.0"/>
<line x1="456.0" y1="24.0" x2="468.0" y2="24.0"/>
<line x1="456.0" y1="36.0" x2="468.0" y2="36.0"/>
<line x1="468.0" y1="24.0" x2="468.0" y2="36.0"/>
<line x1="456.0" y1="48.0" x2="468.0" y2="48.0"/>
<line x1="456.0" y1="72.0" x2="468.0" y2="72.0"/>
<line x1="456.0" y1="84.0" x2="468.0" y2="84.0"/>
<line x1="456.0" y1="96.0" x2="468.0" y2="96.0"/>
<line x1="456.0" y1="108.0" x2="468.0" y2="108.0"/>
<line x1="468.0" y1="96.0" x2="468.0" y2="108.0"/>
<line x1="456.0" y1="120.0" x2="468.0" y2="120.0"/>
<line x1="468.0" y1="120.0" x2="468.0" y2="132.0"/>
<line x1="456.0" y1="144.0" x2="468.0" y2="144.0"/>
<line x1="468.0" y1="132.0" x2="468.0" y2="144.0"/>
<line x1="468.0" y1="156.0" x2="468.0" y2="168.0"/>
<line x1="456.0" y1="180.0" x2="468.0" y2="180.0"/>
<line x1="456.0" y1="204.0" x2="468.0" y2="204.0"/>
<line x1="468.0" y1="192.0" x2="468.0" y2="204.0"/>
<line x1="468.0" y1="204.0" x2="468.0" y2="216.0"/>
<line x1="468.0" y1="216.0" x2="468.0" y2="228.0"/>
<line x1="456.0" y1="240.0" x2="468.0" y2="240.0"/>
<line x1="468.0" y1="228.0" x2="468.0" y2="240.0"/>
<line x1="456.0" y1="264.0" x2="468.0" y2="264.0"/>
<line x1="468.0" y1="276.0" x2="468.0" y2="288.0"/>
<line x1="456.0" y1="300.0" x2="468.0" y2="300.0"/>
<line x1="468.0" y1="288.0" x2="468.0" y2="300.0"/>
<line x1="456.0" y1="324.0" x2="468.0" y2="324.0"/>
<line x1="468.0" y1="312.0" x2="468.0" y2="324.0"/>
<line x1="456.0" y1="336.0" x2="468.0" y2="336.0"/>
<line x1="468.0" y1="336.0" x2="468.0" y2="348.0"/>
<line x1="456.0" y1="360.0" x2="468.0" y2="360.0"/>
<line x1="456.0" y1="384.0" x2="468.0" y2="384.0"/>
<line x1="468.0" y1="372.0" x2="468.0" y2="384.0"/>
<line x1="468.0" y1="384.0" x2="468.0" y2="396.0"/>
<line x1="468.0" y1="396.0" x2="468.0" y2="408.0"/>
<line x1="468.0" y1="408.0" x2="468.0" y2="420.0"/>
<line x1="456.0" y1="432.0" x2="468.0" y2="432.0"/>
<line x1="468.0" y1="432.0" x2="468.0" y2="444.0"/>
<line x1="468.0" y1="444.0" x2="468.0" y2="456.0"/>
<line x1="468.0" y1="456.0" x2="468.0" y2="468.0"/>
<line x1="456.0" y1="480.0" x2="468.0" y2="480.0"/>
<line x1="468.0" y1="468.0" x2="468.0" y2="480.0"/>
<line x1="468.0" y1="12.0" x2="480.0" y2="12.0"/>
<line x1="480.0" y1="0.0" x2="480.0" y2="12.0"/>
<line x1="480.0" y1="12.0" x2="480.0" y2="24.0"/>
<line x1="480.0" y1="24.0" x2="480.0" y2="36.0"/>
<line x1="480.0" y1="36.0" x2="480.0" y2="48.0"/>
<line x1="468.0" y1="60.0" x2="480.0" y2="60.0"/>
<line x1="480.0" y1="48.0" x2="480.0" y2="60.0"/>
<line x1="468.0" y1="72.0" x2="480.0" y2="72.0"/>
<line x1="480.0" y1="60.0" x2="480.0" y2="72.0"/>
<line x1="480.0" y1="72.0" x2="480.0" y2="84.0"/>
<line x1="480.0" y1="84.0" x2="480.0" y2="96.0"/>
<line x1="480.0" y1="96.0" x2="480.0" y2="108.0"/>
<line x1="468.0" y1="120.0" x2="480.0" y2="120.0"/>
<line x1="480.0" y1="108.0" x2="480.0" y2="120.0"/>
<line x1="480.0" y1="120.0" x2="480.0" y2="132.0"/>
<line x1="480.0" y1="132.0" x2="480.0" y2="144.0"/>
<line x1="480.0" y1="144.0" x2="480.0" y2="156.0"/>
<line x1="468.0" y1="168.0" x2="480.0" y2="168.0"/>
<line x1="480.0" y1="156.0" x2="480.0" y2="168.0"/>
<line x1="480.0" y1="168.0" x2="480.0" y2="180.0"/>
<line x1="480.0" y1="180.0" x2="480.0" y2="192.0"/>
<line x1="480.0" y1="192.0" x2="480.0" y2="204.0"/>
<line x1="480.0" y1="204.0" x2="480.0" y2="216.0"/>
<line x1="480.0" y1="216.0" x2="480.0" y2="228.0"/>
<line x1="480.0" y1="228.0" x2="480.0" y2="240.0"/>
<line x1="468.0" y1="252.0" x2="480.0" y2="252.0"/>
<line x1="480.0" y1="240.0" x2="480.0" y2="252.0"/>
<line x1="480.0" y1="252.0" x2="480.0" y2="264.0"/>
<line x1="468.0" y1="276.0" x2="480.0" y2="276.0"/>
<line x1="480.0" y1="264.0" x2="480.0" y2="276.0"/>
<line x1="480.0" y1="276.0" x2="480.0" y2="288.0"/>
<line x1="480.0" y1="288.0" x2="480.0" y2="300.0"/>
<line x1="480.0" y1="300.0" x2="480.0" y2="312.0"/>
<line x1="468.0" y1="324.0" x2="480.0" y2="324.0"/>
<line x1="480.0" y1="312.0" x2="480.0" y2="324.0"/>
<line x1="480.0" y1="324.0" x2="480.0" y2="336.0"/>
<line x1="480.0" y1="336.0" x2="480.0" y2="348.0"/>
<line x1="480.0" y1="348.0" x2="480.0" y2="360.0"/>
<line x1="468.0" y1="372.0" x2="480.0" y2="372.0"/>
<line x1="480.0" y1="360.0" x2="480.0" y2="372.0"/>
<line x1="480.0" y1="372.0" x2="480.0" y2="384.0"/>
<line x1="480.0" y1="384.0" x2="480.0" y2="396.0"/>
<line x1="480.0" y1="396.0" x2="480.0" y2="408.0"/>
<line x1="480.0" y1="408.0" x2="480.0" y2="420.0"/>
<line x1="480.0" y1="420.0" x2="480.0" y2="432.0"/>
<line x1="480.0" y1="432.0" x2="480.0" y2="444.0"/>
<line x1="480.0" y1="444.0" x2="480.0" y2="456.0"/>
<line x1="480.0" y1="456.0" x2="480.0" y2="468.0"/>
<line x1="468.0" y1="480.0" x2="480.0" y2="480.0"/>
<line x1="480.0" y1="468.0" x2="480.0" y2="480.0"/>
<line x1="0" y1="0" x2="480" y2="0"/>
<line x1="0" y1="0" x2="0" y2="480"/>
</svg>
